<svg xmlns="http://www.w3.org/2000/svg" fill="none" viewBox="0 0 431 76">
  <g fill="#151912" clip-path="url(#a)">
    <path d="M80 75.7c-1.8 0-3.3-.5-4.6-1.7-1.4-1.2-2-3-2-5.7 0-2.6.4-5.3 1.3-8.3a76 76 0 0 1 3.7-9.8 185.8 185.8 0 0 1 10.9-21 174.7 174.7 0 0 0 7-13c.4-1.1.6-2 .6-2.6 0-1-.4-1.3-1.4-1.3-.7 0-2 .3-3.7 1a31.3 31.3 0 0 0-7.8 4.8 106.3 106.3 0 0 0-16.9 17.8c-5 6.7-9.6 13.4-14 20-.4.6-.8.9-1.3.9-.4 0-.8-.2-1-.5-.4-.3-.6-.6-.6-1a156.4 156.4 0 0 0 14.9-31.6 27.2 27.2 0 0 0 1.7-8c0-2.3-.8-3.4-2.4-3.4-.4 0-.8 0-1.2.2-1.8.5-3.6 1.7-5.6 3.5-2 1.9-4 4.1-6.1 6.8a889.1 889.1 0 0 0-15 21.4 223.3 223.3 0 0 0-5 8.4l-2.7 4.7c-.3.5-.7.8-1.4.8-.4 0-.7-.2-1-.4-.3-.3-.4-.6-.4-1a348 348 0 0 0 6.8-12.5 645.6 645.6 0 0 0 6.4-11.9c2.5-4.8 4.2-8.9 5.2-12.2 1-3.4 1.6-6.2 1.6-8.5 0-3-.7-5-2-6.2a6.9 6.9 0 0 0-4.6-2c-3.7 0-7.4.6-10.9 2a37.2 37.2 0 0 0-9.7 6A50 50 0 0 0 5.6 29.3c-1.2 3-1.8 5.9-1.8 8.4a9 9 0 0 0 2.1 6.2c1.5 1.6 3.8 2.5 7 2.5a12 12 0 0 0 6.1-1.6 16 16 0 0 0 4.6-4 19 19 0 0 0 3-5.1c.7-1.8 1-3.5 1-5a6 6 0 0 0-.8-3.2 3 3 0 0 0-2.6-1.4c-.4 0-.7-.1-.9-.4-.2-.3-.3-.5-.3-.8 0-.4.1-.8.4-1.1.3-.3.6-.5 1-.5 2.2 0 3.8.7 4.8 2.1 1 1.4 1.5 3.2 1.5 5.2s-.5 4-1.3 6a20.5 20.5 0 0 1-9.3 10.8 15.5 15.5 0 0 1-7.4 1.8c-4.3 0-7.4-1-9.3-3.3-2-2.1-3-4.9-3-8.2 0-3 .8-6.4 2.3-10A44.3 44.3 0 0 1 17.5 8.3C20.8 6 24.3 4 28 2.4 32 1 36 .4 39.8.5c2.8.1 5 1.1 6.7 2.9 1.7 1.8 2.5 4.4 2.5 7.8a34 34 0 0 1-1.1 7.8c-.8 3-2 6.2-3.8 9.9l3.8-5.6a74 74 0 0 1 5-6.5c1.9-2.2 3.8-4 5.9-5.4 2-1.5 4-2.3 6-2.3 1.8 0 3 .6 3.8 1.8a8 8 0 0 1 1.1 4.4c0 1.8-.2 3.5-.7 5.5a50.6 50.6 0 0 1-3.8 11l-1.6 3.9a238 238 0 0 1 11.3-13 92 92 0 0 1 7.2-6.8c2.5-2 5-3.8 7.4-5 2.5-1.3 4.8-2 7-2 2.6 0 3.9 1.3 3.9 3.7 0 1.8-.7 4-2 6.5l-2.6 4.5a563.8 563.8 0 0 0-9.3 17l-4.8 10a91.1 91.1 0 0 0-3.6 9.4c-.9 3-1.3 5.5-1.3 7.6 0 1.6.3 2.9 1 3.8.7 1 1.8 1.4 3.5 1.4 1.3 0 2.7-.4 4.1-1.2a13 13 0 0 0 3.3-2.6c.3-.5.7-.8 1.2-.8.6 0 1 .4 1 1.2 0 .3-.2.7-.6 1.2a15.3 15.3 0 0 1-4.7 3.7 12 12 0 0 1-5.5 1.4Zm19-18.9c-.7 0-1.3-.2-1.7-.7-.5-.4-.7-1.1-.7-2.1 0-1.2.3-2.7.8-4.5a42.2 42.2 0 0 1 8.4-14.5 2 2 0 0 1 1.5-.6c.4 0 .8.1 1.2.4.3.2.5.5.5.9l-.4.8c-.4.4-1 1-1.5 2a69.6 69.6 0 0 0-4.9 8.9 34.8 34.8 0 0 0-1.6 4.7c0 .6.2 1 .7 1 .4 0 .9-.3 1.4-.6l1.4-1c1.4-1.2 2.8-2.4 4-3.7l3.4-3.7c.3-.3.5-.5.9-.5.3 0 .6.2.8.5.3.4.4.7.4 1.2s-.1 1-.4 1.3a45.1 45.1 0 0 1-7.7 7.6c-.7.5-1.7 1.1-3 1.7-1.2.6-2.4.9-3.4.9Zm13-26.1c-.7 0-1.4-.3-2-.7-.5-.5-.7-1.2-.7-2 0-.7.2-1.4.7-2 .6-.4 1.2-.7 2-.7s1.4.3 2 .8c.5.5.7 1.2.7 2 0 .7-.3 1.4-.8 1.9-.6.4-1.2.7-2 .7Z"/>
    <path d="M125.8 57.2c-1 0-2-.3-2.6-.9a3 3 0 0 1-1-2.4c0-2.2.6-4.4 1.7-6.6a64 64 0 0 1 3.8-6.6 62 62 0 0 0 3.5-6c-1 .5-2 1-3.2 1.3a14 14 0 0 1-3.3.4c-1.6 0-2.8-.2-3.7-.6a58.3 58.3 0 0 1-8 11 39.4 39.4 0 0 1-3.5 3.6c-.4.4-.8.5-1.2.5-.4 0-.8-.1-1-.4-.3-.3-.5-.6-.5-1a79.6 79.6 0 0 0 8.3-10.6 54 54 0 0 0 3.5-5.4c0-1.2.1-2.5.5-4a29 29 0 0 1 1.6-4.1c.6-1.3 1.4-2.5 2.2-3.4.8-.9 1.6-1.3 2.5-1.3 1 0 1.4.5 1.4 1.6 0 1-.3 2.2-.8 3.6a37.3 37.3 0 0 1-3.8 7.6 8 8 0 0 0 2.3.3c1.4 0 2.7-.3 3.7-.8l2.8-1.7a4 4 0 0 1 2-.8c.8 0 1.3.2 1.6.6.3.3.4.8.4 1.4a13.3 13.3 0 0 1-2.2 6l-1.8 3a98.2 98.2 0 0 0-4.5 7.9 37.5 37.5 0 0 0-.9 3.6c0 .8.3 1.2 1 1.2.5 0 1.4-.3 2.5-.9 1.4-.8 2.7-1.7 3.8-3l3.1-3 .9-.9 2.2-2.3c.2-.3.5-.5.9-.5.3 0 .5.2.8.5.3.4.4.7.4 1.2s-.2 1-.4 1.3a58.2 58.2 0 0 1-7.6 7.6 24 24 0 0 1-3.7 2.2c-1.3.5-2.5.8-3.7.8Zm17-.4c-.7 0-1.3-.2-1.8-.7-.5-.4-.7-1.1-.7-2.1 0-1.2.3-2.7.9-4.5a42.2 42.2 0 0 1 8.3-14.5 2 2 0 0 1 1.5-.6c.4 0 .9.1 1.2.4.4.2.5.5.5.9 0 .2-.1.5-.4.8-.4.4-1 1-1.5 2a69.6 69.6 0 0 0-4.8 8.9 34.8 34.8 0 0 0-1.7 4.7c0 .6.2 1 .7 1 .4 0 .9-.3 1.4-.6l1.4-1c1.4-1.2 2.8-2.4 4-3.7l3.5-3.7c.2-.3.5-.5.8-.5.3 0 .6.2.9.5.2.4.3.7.3 1.2s-.1 1-.4 1.3a45.1 45.1 0 0 1-7.7 7.6c-.7.5-1.7 1.1-3 1.7-1.2.6-2.3.9-3.4.9Zm12.9-26.1c-.7 0-1.3-.3-1.9-.7-.5-.5-.8-1.2-.8-2 0-.7.3-1.4.8-2a3 3 0 0 1 1.9-.7 2.7 2.7 0 0 1 2.8 2.8c0 .7-.3 1.4-.9 1.9-.5.4-1.2.7-2 .7Z"/>
    <path d="M156.7 58.2c-1.6 0-2.8-.5-3.6-1.5-.8-1-1.2-2.1-1.2-3.6 0-1.6.5-3.5 1.5-5.7a44.2 44.2 0 0 1 9-13.2c1.8-2 3.7-3.6 5.6-4.9 2-1.2 3.7-1.8 5.3-1.8 1.1 0 2.2.1 3.2.4 1 .4 2 1 2.6 2a7 7 0 0 1 1 4 2 2 0 0 1-.5 1.4c-.4.3-.7.4-1 .4-.6 0-1-.2-1-.7-.2-1.8-.8-3-1.7-3.6a5 5 0 0 0-2.6-.9c-1.1 0-2.5.6-4 1.8a56.6 56.6 0 0 0-12.8 16.1 9.5 9.5 0 0 0-1.3 4.6c0 .6 0 1.1.3 1.6.2.4.5.7 1 .7.8 0 2-.5 3.3-1.4 1.4-1 3-2.1 4.5-3.6a129 129 0 0 0 12-12.8c.3-.5.8-.7 1.3-.7.4 0 .8.1 1.1.4.4.3.5.7.5 1.1 0 .3 0 .5-.2.8a81.1 81.1 0 0 0-4.5 10.1 9 9 0 0 0-.6 2.6c0 .6.3.9.7.9.3 0 .6-.2 1-.5l1.2-.7a53.6 53.6 0 0 0 7.5-7.4c.2-.3.5-.5.9-.5.3 0 .5.2.8.5.3.4.4.7.4 1.2s-.2 1-.5 1.3a38.4 38.4 0 0 1-10.3 9c-1 .6-2 .8-2.9.8-.7 0-1.2-.2-1.7-.6-.5-.5-.7-1.2-.7-2.3 0-.9.1-1.9.4-3l1-3.4a84.6 84.6 0 0 1-10.5 9.4 8.5 8.5 0 0 1-4.5 1.7Z"/>
    <path d="M183.2 59.8a2 2 0 0 1-1.3-.5c-.5-.3-.7-.6-.7-1v-.4l.2-.4 3.3-6.4a89.8 89.8 0 0 0 5-10c.5-1.5.8-2.9.8-4 0-.5 0-.9-.2-1.2l-.1-1.1c0-.8.3-1.5.7-2 .5-.4 1-.6 1.7-.6.8 0 1.3.4 1.5 1.3a10 10 0 0 1 .2 3.5v1.3a88.4 88.4 0 0 1 4-5.2 15 15 0 0 1 3.7-2.9 8 8 0 0 1 3.8-1c1.1 0 2 .4 2.8 1.2.8.9 1.2 2.4 1.2 4.5a56.6 56.6 0 0 1-1.6 9.6 39.6 39.6 0 0 1 10.5-8.5 12 12 0 0 1 4.8-1.8c1.1 0 1.7.6 1.7 1.9l-.3 2c-.2.8-.5 1.7-1 2.8l-3.4 8.5a53.9 53.9 0 0 0-1 3.5c0 .8.4 1.3 1 1.3s1.5-.3 2.7-1c1.3-.7 2.6-1.6 3.8-2.8l3-3.1.9-.9 1.4-1.5c.5-.6.8-.8.9-.8.2-.3.5-.5.9-.5.2 0 .5.2.8.5.2.3.4.7.4 1.2s-.2 1-.5 1.3a52.1 52.1 0 0 1-11.7 10.3 8.3 8.3 0 0 1-4 1.2c-1 0-1.9-.2-2.5-.8-.7-.5-1-1.6-.8-3.2a102.3 102.3 0 0 1 4.6-12.9c.6-1.5 1-2.6 1.2-3.5A46.4 46.4 0 0 0 206 51.1a73.5 73.5 0 0 1-1.8 4.4c-.3.6-.7 1-1.4 1-.5 0-.9-.3-1.3-.7-.3-.4-.4-.9-.1-1.5a85 85 0 0 0 3.7-10.2 31 31 0 0 0 1.4-9c0-2-.5-2.9-1.5-2.9-.6 0-1.2.3-2 .9a111.6 111.6 0 0 0-11.4 13.2l-.4.7c-.7 1.6-1.6 3.2-2.6 5a66 66 0 0 0-3.1 6.2 2.3 2.3 0 0 1-2.2 1.6ZM352.6 70c-2.9 0-6-.6-9.7-1.6-3.5-1-7.2-2.3-11-3.8L321 60a375 375 0 0 0-9.5-4.2 35.5 35.5 0 0 1-9 7.1 24 24 0 0 1-11.8 2.9c-4.4 0-7.3-.9-9.4-2.6-2.1-1.7-3.2-3.6-3.2-5.7 0-1.5.6-3 1.6-4.4 1.1-1.4 2.7-2.6 4.9-3.5 2.1-1 4.8-1.4 8-1.4s6.4.4 9.4 1.2c3 .7 5.8 1.7 8.7 2.8a51 51 0 0 0 4.2-6.1 146 146 0 0 0 3.8-6.9 65.8 65.8 0 0 1-18.3-1 15 15 0 0 1-8-4 9 9 0 0 1-2.8-6.4c0-2.6 1.3-5.2 3.8-7.6 2.4-2.5 6.3-4.2 11.3-5.1h.4c.5 0 .9.1 1.2.5.3.3.4.6.4 1 0 .8-.4 1.3-1.3 1.4-4.4.8-7.6 2.1-9.6 3.9-1.9 1.8-2.9 3.6-2.9 5.4 0 1.9.8 3.5 2.3 5a11 11 0 0 0 6 2.9 57.9 57.9 0 0 0 19.1.7l4.6-9.8c1.6-3.2 3.1-6.3 4.7-9 1.6-2.9 3.3-5.3 5.2-7.2 2-2 3.9-3.6 5.8-4.5 1.9-.9 3.7-1.4 5.3-1.4a8 8 0 0 1 6 2.5 8.7 8.7 0 0 1 2.4 6.3c0 1.8-.4 3.7-1.4 5.8-.9 2-2.4 4-4.4 6.1a47.5 47.5 0 0 1-26 14l-1 2.4a70.6 70.6 0 0 1-7.9 12.4 912.6 912.6 0 0 1 11.8 5.2L331 61a176 176 0 0 0 15 5c2.5.7 4.7 1 6.7 1a10.2 10.2 0 0 0 2.8-.4c.5 0 .9.2 1.1.6.3.3.4.7.4 1 0 .8-.4 1.3-1.2 1.5l-3.1.2Zm-71.3-12.5c0 1.3.7 2.5 2.3 3.6a13 13 0 0 0 7 1.6c3.8 0 7-.8 10-2.2 3-1.5 5.6-3.5 7.9-5.9h-.1c-2.6-1-5.2-1.8-7.8-2.5a33 33 0 0 0-8.1-1c-3.7 0-6.4.7-8.4 2-1.9 1.4-2.8 2.8-2.8 4.4ZM337 11.9c-1.7 1.9-3.4 4-4.9 6.7a88 88 0 0 0-4.2 8.1l-3.9 8.5a47 47 0 0 0 22-12.5c1.8-1.8 3-3.6 3.8-5.3.7-1.7 1.1-3.2 1.1-4.6a6 6 0 0 0-1.4-4.1 4.9 4.9 0 0 0-3.8-1.7c-1.2 0-2.6.4-4 1.2-1.5.8-3 2-4.7 3.7Z"/>
    <path d="M344.2 58.2c-1.6 0-2.8-.5-3.6-1.5-.8-1-1.2-2.1-1.2-3.6 0-1.6.5-3.5 1.5-5.7a44.2 44.2 0 0 1 9-13.2c1.8-2 3.7-3.6 5.6-4.9 2-1.2 3.7-1.8 5.3-1.8 1.1 0 2.2.1 3.2.4 1 .4 2 1 2.6 2a7 7 0 0 1 1 4 2 2 0 0 1-.5 1.4c-.4.3-.7.4-1 .4-.6 0-1-.2-1-.7-.3-1.8-.8-3-1.7-3.6a5 5 0 0 0-2.6-.9c-1.2 0-2.5.6-4 1.8A56.6 56.6 0 0 0 344 48.4a9.8 9.8 0 0 0-1.4 4.6c0 .6.1 1.1.3 1.6.2.4.6.7 1 .7 1 0 2-.5 3.4-1.4 1.4-1 3-2.1 4.5-3.6a129 129 0 0 0 12-12.8c.3-.5.8-.7 1.3-.7.4 0 .8.1 1.1.4.4.3.5.7.5 1.1 0 .3 0 .5-.2.8a81.1 81.1 0 0 0-4.5 10.1 9 9 0 0 0-.6 2.6c0 .6.2.9.6.9.3 0 .7-.2 1.1-.5l1.2-.7a53.6 53.6 0 0 0 7.5-7.4c.2-.3.5-.5.8-.5.3 0 .6.2.9.5.2.4.4.7.4 1.2s-.2 1-.5 1.3a38.4 38.4 0 0 1-10.3 9c-1 .6-2 .8-2.9.8-.7 0-1.3-.2-1.7-.6-.5-.5-.7-1.2-.7-2.3 0-.9.1-1.9.4-3l1-3.4a84.6 84.6 0 0 1-10.5 9.4 8.5 8.5 0 0 1-4.5 1.7Z"/>
    <path d="M386 57.2c-1 0-1.9-.3-2.5-.9a3 3 0 0 1-1-2.4c0-2.2.5-4.4 1.6-6.6a64 64 0 0 1 3.8-6.6 62 62 0 0 0 3.5-6c-1 .5-2 1-3.1 1.3a14 14 0 0 1-3.4.4c-1.6 0-2.8-.2-3.6-.6a58.3 58.3 0 0 1-8.1 11 39.4 39.4 0 0 1-3.4 3.6c-.4.4-.8.5-1.3.5-.4 0-.7-.1-1-.4-.3-.3-.4-.6-.4-1 0-.2 0-.5.3-.7a79.6 79.6 0 0 0 8-9.8 54 54 0 0 0 3.5-5.5c0-1.2 0-2.5.5-4 .4-1.4.9-2.8 1.5-4.1.7-1.3 1.4-2.5 2.3-3.4.8-.9 1.6-1.3 2.5-1.3.9 0 1.4.5 1.4 1.6 0 1-.3 2.2-.9 3.6a37.3 37.3 0 0 1-3.8 7.6 8 8 0 0 0 2.4.3 8 8 0 0 0 3.6-.8l2.8-1.7a4 4 0 0 1 2.1-.8c.8 0 1.3.2 1.5.6.3.3.4.8.4 1.4a13.3 13.3 0 0 1-2.2 6l-1.8 3a98.2 98.2 0 0 0-4.4 7.9 37.5 37.5 0 0 0-1 3.6c0 .8.4 1.2 1 1.2s1.4-.3 2.5-.9c1.4-.8 2.7-1.7 3.9-3l3-3c.2 0 .4-.3 1-.9l2.1-2.3c.3-.3.6-.5 1-.5.2 0 .5.2.7.5.3.4.4.7.4 1.2s-.1 1-.4 1.3a58.2 58.2 0 0 1-7.6 7.6 20 20 0 0 1-3.7 2.2c-1.2.5-2.4.8-3.7.8Z"/>
    <path d="M404 60.6c-2.1 0-3.7-.6-4.8-1.7-1.1-1.1-1.7-2.2-1.7-3.2 0-1.2.6-1.9 2-1.9l.8.1c.3 0 .6.2 1 .4 1.2.5 2.5 1 4 1.2 1.3.3 2.7.4 4 .5.6-.1 1-.9 1.5-2.3s.8-2.7 1-4a39 39 0 0 0-.2-9.4l-.7-5.7a166 166 0 0 1-13.6 16c-.3.3-.6.4-1 .4-.3 0-.7-.1-1-.4-.3-.4-.4-.7-.4-1.1 0-.5.2-1 .6-1.3a86 86 0 0 0 6.5-7.3 204 204 0 0 0 8.6-11l.2-1.8.3-1.6a7.3 7.3 0 0 1 2.3-4.1c1.1-1 2.1-1.4 3-1.4 1 0 1.5.5 1.5 1.6 0 .8-.4 2-1.3 3.6l-1.3 2-1.5 2.3c0 2.2.2 4.5.6 6.8a50.6 50.6 0 0 1 .5 13.7c-.3 1.6-.8 3.1-1.6 4.5a33.6 33.6 0 0 0 9.3-5.4c1.1-1 2.2-2 3.2-3.2l2.8-3c.2-.3.5-.4.8-.4.3 0 .6.1.9.5.2.3.3.7.3 1.1 0 .5-.1 1-.4 1.3a45.1 45.1 0 0 1-7.6 7.6 34.2 34.2 0 0 1-12.3 4.9 13.6 13.6 0 0 1-5.3 1.6h-1v.1ZM263.7 40.5c-.7.5-1.4 1-2 1.7-.8.7-1.4 1.4-2 2.2l-2 2.4.8 1.1a15.7 15.7 0 0 0 2.6 2.5 3.1 3.1 0 0 0 2.7.3c.3-.2.6-.3.8-.6a5.7 5.7 0 0 0 1.3-1.3l.2.1a7.2 7.2 0 0 1-1.8 2.4l-1.6 1a4.4 4.4 0 0 1-3.3 0c-.5-.1-1-.4-1.4-.8a13 13 0 0 1-2.2-2.6 9.8 9.8 0 0 1-2.4 2.4l-1.7.9-2 .3a8 8 0 0 1-2.3-.3 4.4 4.4 0 0 1-2.6-2.6 4.7 4.7 0 0 1 .1-3.8c.3-.6.7-1.2 1.2-1.7s1-1 1.7-1.3c.6-.4 1.2-.8 1.8-1a58.1 58.1 0 0 0-2-2.1l-.5-1.2c-.2-.4-.2-1-.2-1.5 0-.6 0-1 .4-1.6a3 3 0 0 1 1-1.2 5 5 0 0 1 3-1.1c.5 0 1 0 1.5.2l1.2.6.9 1 .3 1.5a3 3 0 0 1-.4 1.6l-.8 1-1 .9-.8.5 1.5 1.3a46 46 0 0 1 2.7 3.2c.4.5.8 1 1 1.5a37.6 37.6 0 0 0 2.8-4.2c.2-.3.2-.6.2-.9 0-.3 0-.6-.3-.9l-.8-.4-1-.2H257v-.4l9.2-.2v.3a6 6 0 0 0-2.5.9Zm-8.8 7a20.2 20.2 0 0 0-1.3-1.7l-.9-1a11.7 11.7 0 0 0-1.4-1.5l-.8-.7-.6-.6a11.8 11.8 0 0 0-1.8 2l-.7 1.3a4.5 4.5 0 0 0 0 3 3.7 3.7 0 0 0 2 2c.4.3 1 .4 1.5.4s1 0 1.4-.2a5.3 5.3 0 0 0 2.2-1c.4-.2.7-.5 1-.9l-.6-1Zm-1.8-11.7-.5-1c-.2-.4-.5-.6-.8-.8-.3-.2-.6-.3-1-.3-.2 0-.5 0-.7.2-.3.1-.4.3-.6.5l-.3.7-.1.7c0 .5 0 1 .2 1.3 0 .3.2.6.5 1s.6.8 1 1l1.2 1.2c.4-.5.8-1 1-1.5a5.1 5.1 0 0 0 0-3Z"/>
  </g>
  <defs>
    <clipPath id="a">
      <path fill="#fff" d="M.5.5h430.1v75.2H.5z"/>
    </clipPath>
  </defs>
</svg>
