<svg xmlns="http://www.w3.org/2000/svg" fill="none" viewBox="0 0 261 344">
  <path fill="#CDDACF" d="M265.022 129.609c-1.535-1.804-3.248-3.447-4.926-5.108 1.446 1.876 3.177 3.501 4.926 5.108Zm6.497 3.001c-.286.554-.5 1.107-.607 1.679v-1.983c.196-.071.393-.178.589-.25l-.107-3.858s0-.178.018-.25c-.5-2-1.018-3.893-1.303-5.376-1.089-5.483-1.892-11.002-2.856-16.503-.821-4.644-.91-9.252-.214-13.896.5-3.376 1.178-9.18 2.659-11.467-1.392 7.52-.553 14.2.643 21.701 1.374 8.699 2.017 16.664 1.089 25.523.285 1.179.553 2.394.749 3.608.214-.321.464-.643.732-.964 1.053-3.662 1.249-8.091 1.16-11.77-.036-2.251-1.16-5.805-.714-8.02.393-1.983 2.731-4.947 3.945-7.144 3.355-6.002 5.604-11.253 5.604-18.29 0-3.518.089-9.913-1.678-14.128-1.678-.678-3.552-.84-5.979-1.071-.036.035-.053.089-.071.125.125.125.25.25.357.375l-1.196 1.59c-3.855-1.34-7.728-1.412-11.655-.43-2.945.75-3.962 1.822-5.122 3.305-.66 1.09-1.41 2.108-2.499 2.93 1.125-1.108 1.839-2.09 2.499-2.93 1.463-2.447 2.445-5.216 5.551-7.02 2.48-1.428 5.55-1.464 8.227-.41-3.765-2.09-7.87-.965-11.904 2.554-8.71 7.573-10.976 18.307-9.317 29.024-.41-8.61.536-19.111 10.888-20.576-1.874 5.019-3.017 9.538-2.91 14.985.197 9.877 1.25 34.347 13.297 37.794l-3.534.768c1 .964 1.963 1.965 2.82 3.036.321-.411.607-.857.875-1.339l-.036-1.322Z"/>
  <path fill="#C9DECB" d="M260.061 202.928v-.125c0-.268.018-.554.053-.839v-.09c.018-.285.054-.589.089-.875v-.035c.036-.304.09-.608.143-.911.304-1.786.857-3.555 1.589-5.305a21.6 21.6 0 0 1-.964-.411c-.893 2.501-1.16 5.519-.928 8.609v-.036l.018.018Z"/>
  <path fill="#C9DECB" d="M263.594 214.734a17.91 17.91 0 0 1-.553-.982c-4.569-1.715-5.675-6.019-5.194-10.395-1.784 1.197-4.658 1.911-6.103 2.715-2.91 1.625-5.765 2.339-8.228 4.608-.928.839-2.267 1.911-3.713 3.108-2.855 2.964-5.657 6.001-8.21 9.216.732-2.912 4.784-6.412 8.21-9.216 1.428-1.501 2.874-2.965 4.32-4.43 1.981-2.018 3.944-4.197 6.282-5.823 2.784-1.929 4.855-1.678 7.746-2 .553-2.733 1.606-5.34 2.731-7.251-6.283-2.93-12.208-8.663-19.276-8.681-6.514 0-11.423 3.912-16.652 7.18-7.407 4.644-22.292 19.361-11.69 27.024-.25 10.002 8.21 26.023 20.418 22.772 12.386-3.322 23.059-14.735 28.859-25.63.465-.857.875-1.715 1.268-2.554 0-.018-.036-.036-.036-.054l-.125.393h-.054Z"/>
  <path fill="#E1DFD7" d="M223.722 155.954c-.821.089-1.624.107-2.463.107-1.32.018-2.695.036-4.105.375-.678.161-1.374.447-2.052.715.286.357.589.714.875 1.089l-.821-.839c-.25.589-.518 1.179-.768 1.768.161.054.339.107.5.161h-.571a4.062 4.062 0 0 0-.179.411 22.488 22.488 0 0 0 1.749-.661c.643-.268 1.25-.5 1.767-.625 1.196-.286 2.392-.304 3.659-.322.857 0 1.749-.036 2.659-.125 3.231-.357 5.944-.321 8.728.161.161-.679.339-1.358.517-2.036-3.051-.536-6.014-.59-9.477-.215l-.018.036Z"/>
  <path fill="#F3F3EC" d="M213.995 122.536c-2.748-1.857-5.604-3.804-8.799-5.483-2.623-1.393-4.711-2.697-6.996-4.894l-.339-.321c-2.035-1.965-4.123-4.001-7.282-4.698v.108c.286.392.553.821.767 1.268l-1.106.143-.107.535c2.57.554 4.283 2.215 6.264 4.144l.34.322c2.445 2.357 4.747 3.804 7.46 5.251 3.088 1.643 5.89 3.536 8.603 5.376 2.748 1.857 5.568 3.786 8.763 5.483l.214-.393a252.456 252.456 0 0 1-5.515-5.269 516.227 516.227 0 0 0-2.284-1.536l.017-.036Z"/>
  <path fill="#E1DFD7" d="m199.967 99.692-1.696.911s0 .018.018.018l1.41.965c.125-.625.232-1.251.268-1.894Zm-.464 2.751c.054-.196.089-.393.125-.589-.286-.125-.571-.215-.839-.34 3.248 5.859 8.192 12.61 13.386 18.308 1.339 1.464 2.713 2.857 4.105 4.25a250.207 250.207 0 0 0 5.515 5.269c.785.715 1.571 1.429 2.338 2.162a325.098 325.098 0 0 1 6.372 5.965c2.195 2.108 4.123 4.43 6.157 6.894.161.179.304.358.464.536.161-.446.339-.893.5-1.339.339-.036.696-.054 1.035-.072-.125-.16-.25-.321-.393-.464-1.999-2.393-4.051-4.858-6.318-7.055-2.124-2.054-4.301-4.055-6.407-5.984-3.962-3.643-8.049-7.43-11.815-11.538-4.569-4.983-8.906-10.806-12.048-16.092-.053.232-.089.482-.16.714l-1.999-.607-.018-.018Z"/>
  <path fill="#F0EBE9" d="M198.129 81.51v2.197a49.269 49.269 0 0 1-.25-2.286l-.072-.036c-.232-.107-.464-.232-.713-.34 0 3.037.731 6.163 1.481 9.217.803 3.304 1.553 6.466 1.392 9.395-.036.643-.143 1.268-.268 1.893l.964.679c-.357-.125-.696-.268-1.035-.393-.036.196-.071.393-.125.589l1.999.607c.071-.232.107-.464.161-.714.945-4.019-.054-8.341-1.071-12.538-.696-2.912-1.375-5.716-1.41-8.36-.304.037-.589.09-.893.126l-.16-.054v.018Z"/>
  <path fill="#CFDECF" d="M232.182 39.823c.232.714.411 1.447.572 2.197a28.044 28.044 0 0 0-.572-2.197Zm.625 2.447s0-.072-.018-.107c0 .035 0 .071.018.107Zm-2.963-6.948c.464.571.893 1.214 1.25 1.911-.375-.679-.786-1.34-1.25-1.911ZM196.647 80.85c.161.07.304.142.447.214.232.107.464.214.713.339-.374-.179-.767-.375-1.16-.554Zm1.107-1.715c-.268-7.716 1.249-15.736 4.89-22.594 1.731-3.269 4.248-7.002 6.479-9.877 1.91-2.483 4.837-3.733 6.907-6.055.303-.393.607-.804.91-1.18a8.573 8.573 0 0 1-.91 1.18c-3.391 4.358-6.568 9.127-9.602 13.788-3.962 6.127-5.854 13.95-8.264 21.04v3.465c1.285-.785 2.499-1.929 3.909-2.429 2.41-.857 5.051-1.16 7.282-2.625 3.926-2.572 7.514-7.323 10.584-10.931 7.139-8.377 8.299-19.254 7.085-29.81-1.909-.893-4.301-1.072-7.371-.16-5.872-1.93-9.941-.376-14.974 2.84-1.838 1.178-3.82 2.303-5.801 3.464-.125.107-.25.215-.357.34-4.087 4.072-6.603 9.109-8.245 14.574-1.749 5.84-1.696 19.558 3.641 25.309.714.393 1.445.768 2.195 1.125v-.91c.571-.072 1.106-.269 1.642-.554Z"/>
  <path fill="#E2E6E2" d="M190.579 107.248c-2.516-3.394-7.639-5.43-11.083-7.306-8.157-4.447-15.135-9.752-24.559-11.77-4.676-.982-8.371-.107-12.904-.321-4.712-.233-9.566-.447-14.367.25 4.783.446 10.012 2.036 14.742 3.268 8.513 2.197 17.544 3.108 25.915 6.02 4.212 1.464 7.068 2.946 10.477 5.554 3.605 2.733 6.96 4.233 11.386 5.751h.054l1.107-.16a7.867 7.867 0 0 0-.786-1.269l.018-.017Z"/>
  <path fill="#C3D7C3" d="M237.126 144.898c-1.392 3.697-2.855 7.43-3.926 11.27-.197.679-.357 1.358-.518 2.037a43.781 43.781 0 0 0-.607 2.965c-1.713 10.698 4.409 20.611 14.85 23.862 2.98.928 6.086 1.178 9.227 1.018-4.176-1.34-7.942-3.662-10.37-6.805-4.372-5.68-10.601-19.344-8.085-26.738 9.495.071 18.241-5.698 27.807-3.411 4.551 1.089 9.21 2.643 11.298 7.108 1.142 2.429 1.749 5.001 1.963 7.627 2.713-8.645.803-18.022-7.835-21.344a14.278 14.278 0 0 0-2.035-.625 21.542 21.542 0 0 0-1.624-.339c-4.747-.733-9.602.464-14.314.893-4.747.446-9.513.678-14.278 1.053-.339.018-.696.054-1.035.072-.161.446-.339.893-.5 1.339l-.018.018Z"/>
  <path fill="#C6D3C4" d="M265.486 149.096c-9.566-2.287-18.312 3.482-27.807 3.411-2.498 7.377 3.713 21.058 8.085 26.738 2.428 3.143 6.194 5.465 10.37 6.805h.018c.75-.036 1.499-.09 2.267-.179.178 0 .357-.036.535-.054a61.455 61.455 0 0 0 1.856-.232c.161-.035.321-.053.482-.071.768-.107 1.517-.25 2.285-.393.089 0 .16-.036.249-.054.643-.125 1.303-.25 1.946-.375.375-.071.749-.16 1.124-.25.268-.053.518-.107.786-.161.357-.071.714-.142 1.088-.232a75.362 75.362 0 0 1 2.213-2.59c-3.284-2.697-6.175-6.84-8.085-9.644-1.695-2.501-3.284-5.091-5.336-7.377-1.535-1.715-3.909-3.644-4.605-5.751 3.57 1.679 6.943 7.93 9.674 10.788 1.713 1.804 3.373 3.768 5.211 5.483 1.428 1.34 2.999 3.447 4.587 4.965l.232-.232c2.303-5.608-4.89-10.216-5.818-14.878 3.391.75 6.229 1.75 9.441 1.911.803 3.001-1.66 8.913-2.713 12.021a46.922 46.922 0 0 1 1.66-1.572c.304-4.072 1.517-7.77 3.088-11.913.178-.465.321-.929.482-1.393-.214-2.644-.821-5.198-1.963-7.627-2.106-4.465-6.747-6.019-11.298-7.109l-.054-.035Zm-17.473 31.631 21.436-.625c-3.07 8.109-16.492 2.233-21.436.625Zm1.482-6.162 16.152 2.429c-5.979 1.286-10.441 1.376-16.152-2.429Z"/>
  <path fill="#DAE7DC" d="M267.807 174.94c-1.839-1.714-3.499-3.697-5.212-5.483-2.731-2.858-6.104-9.109-9.673-10.788.713 2.108 3.069 4.037 4.604 5.751 2.053 2.286 3.641 4.876 5.337 7.377 1.909 2.822 4.801 6.948 8.085 9.645.464-.518.946-1.036 1.428-1.554-1.589-1.518-3.159-3.608-4.587-4.966l.018.018Z"/>
  <path fill="#BACDBD" d="m273.446 179.03-.91.893s.054-.178.089-.267c-.071.089-.16.16-.232.232-.481.518-.963 1.036-1.427 1.554-.768.857-1.5 1.714-2.214 2.589l-.517.626c-2.57 3.197-4.801 6.59-6.283 10.091a25.43 25.43 0 0 0-1.588 5.305c7.532 9.984 16.045 15.824 30.163 15.789 9.566-.018 22.399-6.395 30.305-13.843a33.449 33.449 0 0 0-2.784-.875c-5.586 5.751-13.653 8.841-20.721 12.306l19.936-12.502c-4.052-.983-8.085-1.233-12.19-1.215l.624.715c-.553-.125-1.124-.375-1.677-.697-3.159.054-6.354.232-9.638.339-3.748.108-8.067-.625-11.994-.142-1.874.428-3.712 1.018-5.479 1.875 1.66-1.09 3.534-1.625 5.479-1.875 5.265-1.179 10.887-1.108 16.295-2.269.768-.16 1.517-.303 2.249-.428-3.641-3.805-6.961-9.842-8.906-12.503l10.673 12.253c4.212-.518 7.978-.322 12.012.535l-14.814-17.253c5.444 5.072 10.316 11.431 14.885 17.271 2.124.465 4.337 1.09 6.711 1.893l-.179 2.144.018.036a40.684 40.684 0 0 0 1.517-1.554c-4.533-12.324-11.993-25.202-25.254-29.435-8.674-2.786-16.171.964-22.364 6.537-.571.518-1.106 1.036-1.66 1.572-.035.107-.071.196-.107.286l-.018.017Z"/>
  <path fill="#D8E2DD" d="M214.37 159.187c.25-.589.518-1.179.768-1.768l.821.839a25.71 25.71 0 0 0-.875-1.089c-.036-.036-.053-.072-.089-.125-.446.678-.928 1.321-1.41 1.982.268.036.518.089.785.161Z"/>
  <path fill="#D8E2DD" d="M213.353 159.348c-3.891 5.036-8.978 9.466-14.617 12.181l12.582-11.842c-7.567 1.768-17.312 3.59-24.505 2.179-3.337-.661-6.818-.893-10.298-.947-4.087.429-8.156 1.019-12.172.429 3.873-.232 8.013-.482 12.172-.429 3.177-.321 6.336-.553 9.495-.035 4.034.661 7.211.625 11.316.303 2.409-.196 4.926-.035 7.406-.339 2.321-.268 4.873-1.59 7.318-1.84l2.606-2.447c-7.461-9.198-16.188-16.074-28.664-16.896-11.137-.732-24.094 3.197-31.894 11.449-2.463 2.608-3.748 5.269-4.141 7.894.857.858 1.714 1.751 2.57 2.644v-3.662c2.356-6.376 9.888-11.234 16.01-13.61 5.622-2.179 10.548-.678 16.045 1.179.5.089.982.25 1.428.482-.482-.16-.964-.321-1.428-.482-5.372-1-13.546 5.555-17.384 8.18-2.463 1.697-4.604 3.805-7.264 5.323-2.195 1.268-4.997 1.625-7.085 2.947 3.891 4.108 7.781 8.287 12.368 11.431-4.123-3.501-7.674-8.341-10.137-11.806 5.39 1.982 10.619 2.072 16.241 2.947 4.569.714 8.71 1.447 13.368 1.179 4.462-.25 8.389-.983 12.494-.232a.907.907 0 0 1 .125-.143l1.802.607a29.712 29.712 0 0 0-1.927-.464c-4.284 5.572-16.42 13.056-23.345 12.252 7.353 2.572 15.849 3.09 22.435-.25 4.854-2.465 9.852-5.448 13.796-9.341 1.499-2.751 2.82-5.626 4.051-8.431.072-.142.125-.267.179-.41h-.946Zm-24.648-12.36c7.978 2.697 14.796 5.93 20.436 12.556l-20.436-12.556Zm-10.37 5.644c7.871 2.465 14.421 2.751 21.311 7.912l-21.311-7.912Z"/>
  <path fill="#C9CCB8" d="M158.114 73.115s.018.126.036.268v.233c2.231 2.107 4.283 4.322 7.174 5.644 3.177 1.446 6.229 3.375 9.138 5.25.161.054.322.09.482.144L158.06 73.098l.054.017Zm-.946-.41c.196.16.357.321.553.5-.089-.143-.16-.286-.25-.411a1.858 1.858 0 0 0-.303-.072v-.017Zm.428.053-.232-.16s.072.124.107.178c.09.018.161.054.25.072l-.125-.09Zm43.085 29.489-.964-.679-1.41-.965-17.883-12.234s.089.16.125.232c5.996 4.519 11.029 9.859 18.258 12.913.268.125.553.215.839.34.357.125.678.267 1.035.393Z"/>
  <path fill="#DDE7D9" d="M250.369 203.535c-2.338 1.626-4.301 3.787-6.282 5.823a493.66 493.66 0 0 0-4.319 4.43c1.445-1.197 2.802-2.269 3.712-3.108 2.463-2.251 5.319-2.983 8.228-4.608 1.446-.804 4.319-1.518 6.104-2.715.071-.607.16-1.233.285-1.84-2.909.304-4.979.072-7.746 2.001l.018.017Zm-18.793 19.469c2.57-3.233 5.354-6.269 8.21-9.216-3.427 2.804-7.479 6.322-8.21 9.216Z"/>
  <path fill="#DEE6D7" d="M144.05 58.023c-1.856-2.68-3.713-5.126-5.372-7.895-.964-1.214-1.839-2.518-2.535-3.965-1.356-2.75-2.463-6.662-4.105-9.287a17.83 17.83 0 0 0-.928-1.268c.339.375.643.803.928 1.268 2.178 3.286 3.641 7.662 5.426 11.11.393.75.785 1.464 1.214 2.143 1.642 2.09 3.569 3.947 5.443 5.786 4.266 4.198 8.531 9.342 11.922 14.61l-.053-.75-1.624-1.91c-1.214-4.323-.786-8.949-2.088-13.343-.696-2.375-1.857-5.036-2.089-7.448.554.179 1.071.536 1.571.983-.767-2.18-1.642-4.233-2.677-6.073-3.57-6.394-9.406-12.806-15.867-17.593.518-.16 1.071-.304 1.642-.41-8.763 1.625-12.993 11.02-13.582 19.289-.696 9.841 2.838 20.915 10.512 27.452 7.407 6.305 15.921 4.983 24.327 2.126v-.59c-4.873-2.465-9.442-10.448-12.065-14.217v-.018Zm-4.659 12.878c-3.908-1.233-6.8-3.465-9.602-6.412-6.086-6.43-6.461-15.236-5.64-23.416 1.446 1.983 1.982 4.412 3.391 6.466 1.553 2.268 3.392 4.572 5.051 6.805 1.642 2.197 3.195 4.59 5.123 6.555 2.713 2.786 4.462 6.483 7.407 9.02l5.979.589c-1.964 3.518-8.764 1.304-11.726.375l.017.018Zm17.884 1.536s.071-.018.089-.036c-.018 0-.053 0-.089.036Z"/>
  <path fill="#D4DECC" d="M156.115 72.258v.59c.089-.036.196-.072.285-.108.143-.053.304-.107.447-.16a6.77 6.77 0 0 1-.75-.322h.018Zm-6.996-30.274c1.035 1.84 1.909 3.894 2.677 6.073 2.427 2.214 4.016 7.144 4.587 9.752.892 4 .053 8.126-.286 12.038l-.089-.09c0 .25.036.5.053.75.411.644.821 1.287 1.214 1.93.036 0 .054-.018.089-.036.125-.036.232-.09.357-.125 1.428-5.358 2.213-10.163 2.535-14.503a12.596 12.596 0 0 1-1.125 3.126c-.464 1.821-.696 2.893-.856 3.59a7.923 7.923 0 0 1-.197.928 5.456 5.456 0 0 1-.392 1.144l.392-1.572c.125-.536.232-1.018.304-1.536.089-1.215.017-2.5-.161-3.787-.286-1.786-.875-4.25-1.856-8.001-1.357-5.198-3.338-10.645-6.372-15.146 4.962 3.107 9.513 9.502 10.423 15.931-.464-22.45-15.545-29.274-23.791-28.756-.607.036-1.178.126-1.749.215-.571.107-1.107.25-1.642.41 6.479 4.787 12.297 11.2 15.867 17.594l.018.071Z"/>
  <path fill="#D4DECF" d="m157.596 72.776.161-.5h-.036c-.035.16-.089.304-.125.464v.036Z"/>
  <path fill="#D6E1D1" d="M156.383 57.809c-.589-2.608-2.178-7.538-4.587-9.752-.5-.447-1.018-.804-1.571-.983.214 2.412 1.374 5.073 2.088 7.448 1.303 4.394.875 9.02 2.088 13.342l1.625 1.911.089.09c.339-3.912 1.178-8.038.285-12.038l-.017-.018Z"/>
  <path fill="#C6D4C0" d="m158.078 65.025-.392 1.571c.16-.357.285-.75.392-1.143a7.88 7.88 0 0 0 .197-.929c.035-.196.053-.393.089-.589l-.286 1.09Zm-8.103-28.471c3.017 4.483 4.998 9.93 6.372 15.146.589 2.269 1.463 5.162 1.856 8.002.179 1.286.25 2.572.161 3.786 0 .143 0 .286-.018.43l.767-3.02c.518-1 .893-2.053 1.125-3.125.375-1.715.41-3.5.143-5.287-.911-6.43-5.462-12.842-10.424-15.932h.018Z"/>
  <path fill="#E3EDD8" d="M145.139 69.936c-2.945-2.554-4.677-6.233-7.407-9.02-1.928-1.964-3.481-4.375-5.123-6.554-1.677-2.233-3.498-4.555-5.051-6.805-1.427-2.054-1.963-4.501-3.391-6.466-.821 8.18-.446 17.003 5.64 23.416 2.802 2.947 5.694 5.18 9.602 6.412 2.963.946 9.763 3.143 11.726-.376l-5.979-.589-.017-.018Z"/>
  <path fill="#EAEFE2" d="M158.167 73.473v-.108c0-.142-.035-.214-.035-.267v-.161a2.832 2.832 0 0 1-.375-.09 1.312 1.312 0 0 1-.25-.07c.089.142.161.285.25.41.178.303.375.607.535.91l-.071-.464v-.142h-.018l-.036-.018Zm-.803-.876s-.053-.107-.089-.142c-.393-.643-.803-1.286-1.214-1.93-3.409-5.268-7.656-10.412-11.922-14.61-1.892-1.84-3.802-3.697-5.444-5.786 1.66 2.786 3.516 5.233 5.373 7.894 2.623 3.786 7.192 11.752 12.065 14.217.25.125.5.233.749.322.107.035.197.09.304.107.089.036.196.053.303.071a1.568 1.568 0 0 0-.107-.178l-.018.035Zm-25.308-35.721c-.303-.465-.607-.911-.928-1.268.321.393.642.821.928 1.268Zm0 0c1.642 2.625 2.749 6.537 4.105 9.287a22.103 22.103 0 0 0 2.534 3.966 60.809 60.809 0 0 1-1.213-2.144c-1.785-3.447-3.249-7.823-5.426-11.11Z"/>
  <path fill="#F7F6ED" d="M178.942 86.44c-1.035-.911-2.516-1.358-3.944-1.769-.161-.053-.321-.089-.482-.142-.428-.126-.857-.25-1.249-.393 2.088 1.321 3.73 3.429 6.122 4.286l3.284 3.322c-.839-.696-1.446-1.947-2.124-3.125a2.818 2.818 0 0 1-.125-.233c-.429-.732-.893-1.428-1.464-1.928l-.018-.018Z"/>
  <path fill="#CADCCC" d="M219.939 62.899c-3.07 3.608-6.658 8.359-10.584 10.93-2.249 1.483-4.873 1.787-7.282 2.626-1.428.5-2.624 1.644-3.927 2.43v2.607l.143.054c.304-.036.589-.09.893-.125 6.407-.875 11.351-2.483 16.759-6.27 3.998-2.786 9.191-4.679 12.511-8.269 4.765-5.18 6.211-16.503 4.337-24.72a.518.518 0 0 0-.036-.16c-.856-3.697-2.409-6.752-4.64-8.288-.054-.035-.089-.071-.143-.089a6.673 6.673 0 0 0-.856-.482c-.036-.018-.072-.054-.108-.054 1.214 10.556.054 21.433-7.085 29.81h.018Zm-22.06 18.521a49.388 49.388 0 0 1-.125-2.303c-.536.285-1.071.482-1.66.553v.911c.196.09.375.179.553.268.393.179.786.375 1.16.554l.072.036v-.018Z"/>
  <path fill="#D1DED6" d="M190.276 54.147c1.642-5.465 4.158-10.502 8.245-14.574.107-.107.232-.215.357-.34a.135.135 0 0 0-.071.036c-.357.197-.714.41-1.053.607-.357.215-.732.429-1.089.643-.16.09-.321.197-.482.286-21.417 12.735-19.9 28.167-3.944 37.669.053.035.125.071.178.107.482.286.964.554 1.446.822 0 0 .036.017.054.035-5.337-5.733-5.373-19.468-3.641-25.309v.018Z"/>
  <path fill="#EAF2EA" d="M206.41 54.397c3.016-4.661 6.211-9.43 9.602-13.788-2.07 2.322-4.997 3.572-6.907 6.054-2.231 2.894-4.747 6.609-6.479 9.878-3.641 6.84-5.158 14.878-4.89 22.594.018.768.071 1.536.125 2.304.071.75.143 1.518.232 2.286v-2.197l.018-2.608v-3.465c2.427-7.09 4.301-14.914 8.281-21.04l.018-.018Zm9.602-13.788c.321-.375.643-.75.91-1.18l-.91 1.18Z"/>
  <path fill="#CCDDD0" d="M173.82 177.798h-.054c-2.998-.357-5.907-2.072-8.584-4.34-4.587-3.144-8.478-7.323-12.369-11.431-.107.071-.214.125-.339.214v-.554c-.857-.893-1.696-1.786-2.57-2.643-2.517 17.004 41.086 43.42 59.862 9.681.089-.161.178-.322.267-.5-3.944 3.893-8.942 6.858-13.796 9.341-6.586 3.358-15.082 2.84-22.435.25l.018-.018Z"/>
  <path fill="#E9F0EA" d="M176.497 160.902c-4.158-.054-8.299.196-12.172.428 4.016.59 8.103 0 12.172-.428Zm1.838-8.27 21.311 7.912c-6.89-5.161-13.44-5.447-21.311-7.912Zm30.824 6.894c-5.658-6.626-12.458-9.859-20.436-12.556l20.436 12.556Z"/>
  <path fill="#E9F0EA" d="M204.714 160.848c-2.48.286-4.997.143-7.406.339-4.088.322-7.282.34-11.316-.303-3.159-.518-6.336-.286-9.495.035 3.48.036 6.961.286 10.298.947 7.193 1.429 16.938-.411 24.505-2.179l-12.582 11.842c5.64-2.715 10.726-7.127 14.617-12.181h1.517a2.69 2.69 0 0 0-.5-.161 5.654 5.654 0 0 0-.785-.161c.482-.643.964-1.304 1.41-1.982.482-.697.928-1.411 1.356-2.126l-1.749 1.643-2.605 2.447c-2.428.25-4.998 1.554-7.318 1.84h.053Z"/>
  <path fill="#D2DED6" d="M197.29 165.385s-.089.107-.125.143c.642.107 1.285.267 1.927.464l-1.802-.607Zm-23.524 12.413h.054c6.925.804 19.061-6.698 23.345-12.253-4.105-.75-8.032 0-12.494.233-4.658.268-8.799-.465-13.368-1.179-5.622-.875-10.851-.965-16.241-2.947 2.463 3.465 6.015 8.305 10.137 11.806 2.678 2.268 5.569 3.983 8.585 4.34h-.018Zm10.798-32.221c.482.161.946.321 1.428.482a4.985 4.985 0 0 0-1.428-.482Zm-31.733 16.45c2.088-1.322 4.89-1.679 7.085-2.947 2.66-1.518 4.784-3.626 7.265-5.323 3.837-2.625 12.011-9.198 17.383-8.18-5.497-1.875-10.423-3.376-16.045-1.179-6.122 2.376-13.653 7.234-16.009 13.61v4.215c.107-.071.214-.143.339-.214l-.018.018Z"/>
  <path fill="#B6CAB8" d="m269.449 180.102-21.436.625c4.944 1.608 18.366 7.484 21.436-.625Zm-3.802-3.108-16.152-2.429c5.711 3.805 10.173 3.715 16.152 2.429Z"/>
  <path fill="#B3C3B2" d="M257.562 75.098c1.16-1.482 2.177-2.572 5.122-3.304 3.927-1 7.818-.929 11.655.428l1.196-1.59a7.243 7.243 0 0 0-.357-.374c-1.071-1.126-2.41-2-3.855-2.572-2.678-1.036-5.73-1.018-8.228.41-3.106 1.787-4.087 4.573-5.551 7.02l.018-.018Z"/>
  <path fill="#B3C3B2" d="M257.562 75.098c-.66.84-1.374 1.822-2.499 2.93 1.089-.822 1.839-1.84 2.499-2.93Z"/>
  <path fill="#D4E2D6" d="M258.08 93.655c-.108-5.447 1.035-9.966 2.909-14.985-10.37 1.465-11.316 11.967-10.887 20.576.035.839.107 1.697.16 2.483.518 6.644 1.107 11.448 4.908 17.092 1.392 2.072 3.159 3.894 4.944 5.662 1.678 1.661 3.391 3.305 4.926 5.108.75.876 1.464 1.787 2.088 2.769l.714-.143 3.534-.768c-12.065-3.447-13.118-27.917-13.296-37.794Z"/>
  <path fill="#C1D7BE" d="M320.832 202.035c-7.906 7.448-20.739 13.807-30.305 13.842-14.1.018-22.631-5.804-30.163-15.789-.053.304-.107.608-.143.911v.036c-.035.286-.071.589-.089.875v.089l-.054.84v.179c.233 2.964.911 5.947 1.946 8.555.036.071.089.161.125.232.089.161.16.339.268.5.089.161.196.34.303.5.089.143.178.304.268.447.125.196.267.393.392.607 0 0 .018.036.036.054.143.053.286.107.446.143l-.107.321s.036.036.036.054c.178.25.357.482.535.732 7.693 9.948 22.203 15.592 33.715 8.912 9.263-5.376 16.045-15.271 24.237-22.147l1.16-.161a61.687 61.687 0 0 0-.607-1.697 39.945 39.945 0 0 1-1.517 1.554c-.142.143-.303.268-.464.411h-.018Z"/>
  <path fill="#DEEBD5" d="M258.133 201.535a20.602 20.602 0 0 0-.285 1.84c-.482 4.376.624 8.68 5.193 10.395-.375-.697-.714-1.465-1.035-2.233-1.035-2.608-1.713-5.59-1.945-8.555-.232-3.09.035-6.109.928-8.609.089-.25.178-.5.267-.732-.142.214-.285.428-.41.678-1.124 1.894-2.178 4.519-2.731 7.252l.018-.036Z"/>
  <path fill="#D3E2D9" d="M48.243 148.649c4.926 1.572 8.138.036 11.35-2.751 1.75-1.5 2.642-3.125 3.57-5.108.893-1.875 1.964-3.393 2.196-5.537.428-4.143.142-8.198-1.107-12.431-.571-1.929-1.428-3.447-2.695-5.126-.75-1-1.446-2.125-2.463-2.947-.892-.732-1.803-.893-2.838-1.322-1.374-.589-2.445-1.714-3.908-2.125-2.089-.589-4.177.411-6.265.268-3.445-.25-7.085-2.572-10.352-1.233-2.713 1.108-3.998 4.037-4.961 6.377-1.803 4.358-2.785 9.037-3.891 13.628l21.346 18.289.018.018Z"/>
  <path fill="#D4E0DB" d="M47.332 145.398c-.267-4.036-3.694-8.376-5.318-12.216-1.25-2.965-2.106-6.305-2.892-9.36-.785-3.107 2.106-4.804 4.909-5.769 2.73-.964 5.979-2.411 9.048-2.607 2.106-.143 4.748.035 6.729 1.071-1.07-1.696-1.892-2.965-3.82-4-1.927-1.036-3.89-1.715-6.068-1.912-1.588-.142-3.123.072-4.712-.142-1.784-.233-3.605-.947-5.3-.465-2.213.625-4.784 1.947-6.55 3.144-4.677 3.143-4.391 9.216-4.427 14.217l18.401 18.039Z"/>
  <path fill="#D3DFDB" d="M38.766 132.824c-.215-4.59-2.339-8.662-4.052-13.056-1.303-3.358 1.963-4.197 4.783-5.144 3.124-1.018 6.265-2.411 9.763-2.59 2.41-.125 4.658.733 6.854 1.786-.09-3.804-8.425-4.054-11.334-4.608-4.533-.857-9.691-2.232-14.064-1.232-1.588.375-3.57 1.018-4.962 1.697-2.945 1.411-1.999 6.697-1.999 9.305l15.028 13.842h-.017Z"/>
  <path fill="#CFDFD7" d="M15.51 131.181c-.66 7.144 1.57 13.557 7.996 19.111 4.783 4.126 10.673 5.841 16.759 4.93 4.997-.75 12.19-3.304 9.923-9.002-2.16-5.448-8.103-9.359-10.958-14.574-1.767-3.251-2.981-6.823-5.515-9.77-2.178-2.537-4.462-2.912-7.354-1.858l-10.869 11.163h.018Z"/>
  <path fill="#D4E2DA" d="M17.67 135.111c-.036 3.482 2.355 6.787 4.48 9.877.856 1.25 1.855 2.393 3.105 3.375.803.643 1.838 2.001 2.891 2.215-.286-2.804-3.23-5.823-.982-8.359 2.196-2.483 5.551 2.268 7.514 3.269-1.088-2.787-.66-5.234-.928-8.002-.25-2.393-.482-4.822-.75-7.216-.32-2.75-.945-5.465-4.408-6.662-4.426-1.5-8.977.072-10.601 3.501l-.304 8.037-.018-.035Z"/>
  <path fill="#C3D5C9" d="M13.315 131.771c-.893 3.482-.572 7.108 1.624 10.573 1.017 1.608 2.463 3.144 3.712 4.644 1.339 1.59 3.23 2.518 5.033 3.644 2.213 1.393 4.658 2.179 7.014 3.322-.856-.715-1.767-1.358-2.552-2.144-.803-.803-1.303-1.75-2.052-2.607-1.268-1.465-2.767-2.662-4.088-4.001-1.213-1.25-2.498-2.715-3.177-4.197-.374-.822-.606-1.733-.928-2.537-.482-1.196-1.838-2.768-1.481-4.018l-3.106-2.662v-.017Z"/>
  <path fill="#CDDBD5" d="M36.017 126.484c.16.643.821 1.357 1.25 1.964.927 1.322 1.713 2.715 2.676 4.037 1.268 1.715 2.5 3.376 3.713 5.126 1.285 1.84 3.444 4.072 4.051 6.144-4.48-5.376-6.64-11.949-11.226-17.271h-.464Z"/>
  <path fill="#DFEFEA" d="M24.79 105.086c-.214-.375-.41-.785-.178-1.125.518.34.875 1.018 1.41 1.393.571.375 1.553.697 2.231.911 1.32.429 2.963.661 4.337.768 1.356.107 2.838.215 4.159.536 1.338.339 3.194.893 4.569.768-2.731-.411-5.426.518-8.21 0-1.428-.268-2.91-.375-4.337-.607-1.268-.197-2.945-.983-4.23-.911-.304-.232-.036-.107.089-.161l.178-1.554-.017-.018Z"/>
  <path fill="#D4E0D8" d="M13.475 128.573c-1.017 1.644.607 4.93 1.446 6.645.82 1.679 2.177 4.072 3.64 5.429.161-1.464.054-3.858 1.072-5.019.606-.696 2.605-1.678 3.57-2 1.41-.482 3.123 1.018 4.354.339.625-.339.678-1.196 1-1.714.356-.608.892-1.125 1.302-1.715 2.035-2.983 1.964-7.555 1.642-11.163-.232-2.518-2.248-6.358-.517-8.484.785-.964 2.57-1.089 3.855-1.375 1.16-.25 2.41-.607 3.623-.75-2.106-1.054-5.069-.786-7.264-1.197-1.196-.232-2.231-.429-3.409-.786-.875-.268-2.927-.714-3.391-1.286.143 0 .268.036.375.107l-11.316 22.952.018.017Z"/>
  <path fill="#D2DED9" d="M28.325 122.233c-.697 1.375-.232 3.268-.357 4.804-.197 2.447-.41 4.823-.232 7.323.142 1.894.357 3.858.57 5.752.09.839.143 2.143.607 2.804.447-1.036-.892-3.072-1.16-4.126-.91-3.662-.125-7.359-.517-11.02l1.07-5.555.019.018Z"/>
  <path fill="#D4E2DC" d="M24.22 103.765c-.84.607-1.071 2.125-1.696 2.965a37.39 37.39 0 0 0-1.91 2.947c-.624 1.036-1.178 2.089-1.838 3.125-.607.965-1.517 1.751-2.106 2.715-2.606 4.251-4.57 8.788-4.658 13.932 0 1.393.071 2.804.428 4.215.428 1.625 1.285 3.375 1.463 4.983.804-2.161 1.303-4.376 3.16-5.876 1.749-1.429 3.23-2.751 5.247-3.948 2.534-1.482 4.515-4.447 4.283-7.358-.285-3.358-1.713-6.412-1.303-9.788.322-2.554.268-4.983-.285-7.627a.485.485 0 0 0-.018.536l-.767-.839v.018Z"/>
  <path fill="#D7E4DE" d="M24.166 105.015c.857.589.5 2.179.785 3.036.286.875.66 1.804 1.018 2.662.75 1.768 2.32 3.25 3.248 4.929.928 1.679 1.999 3.34 3.052 5.001 1.107 1.751 2.57 4.09 3.98 5.573-1.553-2.09-2.891-4.358-3.89-6.609-.768-1.732-1.928-3.304-2.839-5.019-.803-1.554-1.552-3.054-2.498-4.554-.464-.715-.875-1.447-1.339-2.143-.375-.536-.714-1.483-1.214-1.894.161.125.322.233.447.375l-.75-1.375v.018Z"/>
  <path fill="#D2DED9" d="M18.008 121.661c-.696 1.34-.66 3.447-.392 4.948.303 1.714.57 3.393.82 5.108.304 2.072.982 4.233 1.571 6.287.464 1.607 1.642 3.322 1.678 4.965-2.516-3.876-3.409-8.162-4.355-12.324l.66-8.984h.018Z"/>
  <path fill="#D2DEDA" d="M31.52 107.873c3.051 1.25 5.89 2.214 9.048 3 5.23 1.268 9.87 4.162 14.136 7.073-2.392-.929-4.605-2.804-6.907-4.036-1.553-.822-3.177-1.626-4.802-2.287-1.588-.66-3.212-1.25-4.819-1.875-1.784-.679-4.48-2.286-6.282-1.715l-.375-.16Z"/>
  <path fill="#CADAD1" d="M14.01 139.469c.233-.608.643-1.269.554-1.929 1.481.643 2.641 2.929 3.587 4.125.946 1.233 1.91 2.537 3.034 3.68 1.339 1.357 2.66 2.572 3.927 3.929 1.214 1.304 2.41 2.715 3.998 3.697-4.123-3.286-7.603-8.091-9.78-12.449-.733-1.482-1.732-2.804-2.785-4.179-.839-1.09-2.338-2.429-2.73-3.662l.196 6.77v.018Z"/>
  <path fill="#C2CEC9" d="M35.678 108.909c.25.268.589.589 1.142.732-.464.286-.5.839-.5 1.375 0-.5.036-1.036.232-1.482-.142-.09-.267-.161-.392-.25.267-.179.464-.268.874-.25-.196.857-.946 1.268-1.481 1.929 2.392.893-.357 3.554-.571 4.911-.143 1.001.696 2.626.089 3.394-.607-.089-.5.053-.892.179.428.392.838.785 1.267 1.196l.214-11.752.018.018Zm.607 20.772c-.214.571-.607 1.196-.714 1.786-.107.589.464.893-.036 1.5-.25-.071-.517 0-.732-.071 1.714 1.625-1.535 4.447-1.035 6.18l2.499-9.413.018.018Z"/>
  <path fill="#C2CEC9" d="M35.356 109.748c-.5-.339-.892-.839-.91-1.339.91-.304 1.874.607 2.445-.215.465.161.66.5.732.965l-2.249.571-.018.018Z"/>
</svg>
