<svg xmlns="http://www.w3.org/2000/svg" xmlns:xlink="http://www.w3.org/1999/xlink" fill="none" viewBox="0 0 348 103">
  <g clip-path="url(#a)">
    <path fill="#BABAB4" d="m36.4 42-.1-.8c-2.5.3-4.5-1.1-6.4-2.7l-1.6-1.7c-.9-1-1.7-2-2.8-2.5l-.4.8c1 .5 1.8 1.4 2.6 2.3.5.6 1 1.3 1.7 1.8 2 1.6 4.1 3.3 7 2.9Z"/>
    <path fill="#7E6D63" d="M41.6 47.9c.3-.3.2-.5.7-.6-1.3-.8-3-1-4.1-2 2.3 2.2 3-.5 1.7-2.1 3.1 1.4 1.9.8 4.6-.5-.2 1-1.6 3.2-1 4.4l-1.9.8Z"/>
    <path fill="#9C8E7D" d="M35 37.3c-.8-.1-1.8-.4-2.4-1l1.3-1c-.9-.6-1.6-.7-2.5-1.2.8-1 2 0 2.8-1.4v1.8c1-1.2 2.4-1.1 3.5-.1-.4.1-.6.6-.8.7.4.3.7.6 1.2.8-2-2-3.4.7-.9 1.4-.4-.4-1-.7-1.6-1-.6.6-.6 1-.5 1.6v-.6H35Z"/>
    <path fill="#D6CBBC" d="M26.8 35.6c-1.4-1 .5-2.9-1-3.8-.3.6-1 1.2-1.2 1.9-.8-.6-1.3-1.2-2.2-1.6-.6 1.7.6 2.4-2 3.3 1.5.7 3.4-.4 5 .2h1.4Z"/>
    <path fill="#817463" d="M37 44.6c-1.4.5-5 .1-5.4-1.6.7 0 1.4-.6 1.9-1a2.5 2.5 0 0 1-1.2-2.5l3 1.7c0-1 .5-1.6 1.5-1.4l-.5 2.4c.6 0 1.5.3 2.2.2L37 44.7Z"/>
    <path fill="#BABAB4" d="M44.8 50.9c-.5-.4-1.3-.6-2-.8L42 50l-2.5-1c-1.4-.5-3-1.2-5-1.7l-2-.6-3-.8h-2c-1 .1-2 .2-2.5-.1l-.5.7c.7.5 1.9.4 3 .3h1.9l2.8.8 2.2.6c1.8.4 3.4 1 4.8 1.6.8.4 1.6.8 2.5 1l1 .3c.5.1 1.2.3 1.6.6l.5-.7Z"/>
    <path fill="#90887B" d="M33.3 47c-1.3-.9-1.6-2.4-3.3-2.9 0 1 .6 1.5 1.3 2.2-.4 1.3-1.9 1.3-2.8 1.9 1.5.6 4.6.3 6.3-.2-.5-1.6.3-4.5-1.7-5.2.3 1-.2 2-1 2.5l1.2 1.7Z"/>
    <path fill="#DABD9A" d="M24.9 45.6c.2.2.4.1.5-.1 0-1-.3-2-.6-2.7 0 1.5-.8 2.3-2.2 2.7.5.2.8.6 1.4.7-.4.3-.7 1-1.2 1.3 1.3 1 1.6-1.2 3-.4l-1-1.5Z"/>
    <path fill="#817463" d="M25 35.6c0-1 .1-1.8-.2-2.7.4.8 1 1.4 1.8 1.9-.1.7-.6 1-1.3.7h-.4Zm-.8-.4.3-.5-1.1-.7c-.2.5 0 .8.2 1.1h.6Z"/>
    <path fill="#9E8A67" d="M26.2 46.6c-1.4.3-1.2-2.3-1.3-3.4.4 1.2 1.1 1.5 2.2 2.4a2 2 0 0 1-1 1.2l.1-.2Z"/>
    <path fill="#A59586" d="M43 50.4c-1.5.3-3.8-.6-5-1.2.7.3 1 1 1.4 1.5a12 12 0 0 1-2.6 2.2H40c-.6.8-.9 2-.3 2.6.4-1.2 1.9-3.8 3.2-4v-1.1Z"/>
    <path fill="#6E6157" d="M34.7 34.6c-.6 2.6 2 1.8 3.2 1.6l-3.2-1.6Z"/>
    <path fill="#CCE0BF" d="M98.4 41.2c-3.1.2-6-2.2-8.7-3.3-3-1-5.7-1.9-8.7-3.2-5.8-2.6-12.2-4-18-6.4 5-.3 10-.5 14.7 1 2.2.8 4.1 2 6.2 3 1.2.5 2.5.8 3.6 1.5 1.3.8 2.3 2 3.7 2.6l7.2 4.8Z"/>
    <path fill="#C3D5CF" d="M51.6 51.4c-2-1-5.6-3.3-7-5.2-1.7-2-2.1-5.4-2.5-8-.5-3-.6-6-.6-9 0-2.2-.7-4.6-.3-6.8a169.2 169.2 0 0 0 9.4 20.3c1.3 2.4 4.6 6.8 4.6 9.4l-3.6-.7Z"/>
    <path fill="#C1C4BF" d="M38.2 67.6c1.8-1.3 4.5-1.1 6.4-.8 2.2.3 4 0 6.4-.5-1.8.7-3.2-.3-4.9-.6-1.7-.4-3.4 0-5.2.3l-2.7 1.6Z"/>
    <path fill="#BABAB4" d="m115 61.4-.7-.6c-1.6 2-4.1 2.2-6.5 2.2l-2.3-.1c-1.3-.1-2.6-.3-3.8 0l.2.8c1-.2 2.3 0 3.5 0 .8.1 1.7.3 2.4.2 2.7 0 5.3-.4 7.2-2.6Z"/>
    <path fill="url(#b)" d="M75 62.2h51.1v36.2H75z"/>
    <path fill="#BABAB4" d="m144.2 66.2-.8-.4c-2.2 4-4.5 4-9 2.6l-.3.8c4.8 1.6 7.7 1.5 10-3Z"/>
    <path fill="#BABAB4" d="m158.5 56.1-.2-.8c-1.3.2-2 1.7-3 3.2a8.3 8.3 0 0 1-2 3c-1.5.9-4.1 2.6-6.1 3.2-4.5 1.5-10.5 2-15.6 1.2v-.2h-.7l-3 .5 3 .4c5.4 1 11.8.5 16.6-1 2-.7 4.8-2.5 6.2-3.5a9 9 0 0 0 2.4-3.2c.8-1.3 1.5-2.6 2.4-2.8Z"/>
    <path fill="#B6B5B2" d="M174.2 54.8c-1.8-2.2-5-3.5-8-4.6-2.8-1-5.7-1.9-8.5-2.7l-1.7-.4c-4.8-1.3-11.4-3-14.2-7.1l-1.1.7c3 4.5 10 6.3 15 7.6l1.7.5 8.3 2.6c2.2.8 5.8 2.1 7.5 4.2l1-.8Z"/>
    <path fill="#9D9D9C" d="M182.9 57.3c-7-2-14-3.6-21-3-6.5.8-12.9 2.4-19 4l-12.2 2.9c-.7 0-1.4.2-2 .4-4.5.8-9 1.7-13.2 1.7v1.3a70.6 70.6 0 0 0 15.4-2.2c4.2-.8 8.3-1.8 12.3-2.9 6.1-1.5 12.4-3.2 18.8-3.8 6.9-.7 13.7 1 20.6 2.8l.3-1.2Z"/>
    <path fill="#9C9990" d="M126.7 57.2c-1-.6-2.2-1.5-3.3-2.4a19.7 19.7 0 0 0-9-4.6l-2.5-.8c-2.4-.8-5.1-1.9-7.2-4l-1.6-1.5c-1.7-1.6-3.7-3.4-4.5-5.3l-1.2.6c1 2 3 4 4.8 5.7l1.5 1.4a20 20 0 0 0 7.8 4.4l2.6.8c1.8.4 3.4.9 5.1 1.9 1.2.7 2.3 1.6 3.4 2.5 1.1.8 2.3 1.8 3.5 2.5l.6-1.2Z"/>
    <path fill="#B7B6AD" d="M137.2 59.2a30.8 30.8 0 0 0-9.4-2.2l-1.6-.2a168.7 168.7 0 0 0-30-1.6l-1.8-.2c-4-.5-7.5-.8-8.6.8l1.1.7c.7-1 5.2-.5 7.3-.2l2 .2h5.5c1.4-.1 2.8-.2 4.3-.1 5.5 0 11.9.6 20 1.7l1.7.2c3 .4 6.5.8 8.9 2l.6-1Z"/>
    <path fill="#D3CEBC" d="m89.2 56.8-.7-.6c-3.7 4.2-6.3 6.2-8.2 6.3-1.5 0-2.5-1.2-3.9-2.7-.9-1-2-2.2-3.4-3-1.2-.9-2.5-1.1-3.7-1.4l-1.8-.4-2.2-.8c-2.9-1.2-3.9-1.6-20 1.3l.2.8C61.3 53.5 62.2 54 65 55l2.3.8 1.8.5c1.2.2 2.4.5 3.5 1.2 1.3.8 2.3 1.9 3.2 3 1.4 1.4 2.7 2.9 4.6 2.8 2.2 0 4.9-2 8.8-6.5Z"/>
    <path fill="#D3CEBC" d="M90.8 58.1a48 48 0 0 1-37.5 8v-.3l-2.2.1c-1 0-2 0-2.8.4l-.3-.8c1-.4 2-.4 3.1-.4 1 0 1.9 0 2.8-.4 1.5-.4 2.8-1 4.2-2 3.5-2.4 7.1-3.4 10.5-4l3.7-.8c2.7-.6 5.4-1.2 8-1.5a34 34 0 0 1 7.9.5l2.4.4 1 .1-.8.7Zm-1.3 0-1.5-.3c-2.5-.4-4.8-.8-7.5-.5a65 65 0 0 0-11.7 2.3 26 26 0 0 0-10.2 3.8c-1.4 1-2.6 1.6-4 2 13.4 2 26-.7 34.9-7.4Z"/>
    <path fill="#736A60" d="M147.1 57.8a3 3 0 0 1-1.6-2c1-.4 1.8 0 2.5.6.1-.7.5-1.3.6-2 .5.8.7 1.9 1 2.9.5-.2.4.2.7.3l-3.2.2Z"/>
    <path fill="#B8A697" d="M136.6 58.3c-1.2.3-2.4.3-3.6 0 .3 1 1 2 .7 3 1-.4 2-1 3.2-1.1-1 .7-.6 1-.8 1.7.5-.2 1-.1 1.4-.5l.2 1.9c.8-2.4 1.7-2 3.8-2.3.9 1.7-1.3 2.4-2.6 2.5.5 1.2 1.8 1.6 1.8 3.2.5 0 .7 0 1.1-.2-.2-.5 0-1.3-.2-1.8l.6-.3c-.1-1.4-.5-2.8-.7-4.2 1.2-.3 2.5-.2 3.2-1.5-2.6 1-4.3-1.2-4.6-3.4a4 4 0 0 1 0 2.6c-.7-.2-1.5-.3-2.3-.2v.7l-1.2-.2Z"/>
    <path fill="#7C7666" d="M132.3 61.1c-1 .1-2-.5-3-1l.1 1c-1 .2-1.8.7-2.5 1.5a5 5 0 0 0 2.4 0l.3 1c.5-.2 1.3 0 1.9-.3 0 .5.4 1 .4 1.5.4 0 .6 0 1-.2.1-1.1.5-2.4 1.6-2.7l-2.2-.8Z"/>
    <path fill="#8F7E70" d="M130.4 57.8c-.5-1.3-1.8-3.7-3.1-4.2 0 .9.2 1.8.4 2.7-.9 0-1.9-.2-2.7.2 1.3.7 1.5 1.8.5 3 1.3-.3 3.2-1.8 4.2-1.1l.7-.6Z"/>
    <path fill="#908C7F" d="M134.3 68.7 132 65c0 .7.6 1.6 1 2.5-.8.8-2.1.4-3.2.6.6.5.8.9 1.7.9-.7.7-1.6 1.3-1.1 2.3l3-1.7.8-1Z"/>
    <path fill="#7E6D63" d="M122.8 62.1c0-.4-.2-.5 0-.8-1.4.3-2.8 1.2-4.3 1.2 3.1 0 2-2.4-.2-2.7 3.3-1 2-.6 3-3.4.7.9 1 3.4 2.3 4l-.8 1.7Z"/>
    <path fill="#9C8E7D" d="M110.8 58.8c-.8.4-1.6.9-2.6.8.3-.5.2-1.2.3-1.6-1 .1-1.6.6-2.5.8-.1-1.3 1.4-1.4 1-3 .2.4 1.1 1 1.3 1.4-.1-1.6 1-2.4 2.5-2.4-.2.3 0 .8-.1 1l1.4-.1c-3-.2-2.1 2.7.3 1.5-.6 0-1.3.3-1.8.4-.1.9.2 1.2.6 1.5l-.4-.3Z"/>
    <path fill="#D6CBBC" d="M103.5 63c-1.7.2-1.5-2.5-3.2-2.2.2.7 0 1.6.3 2.3-1 0-1.7-.1-2.7.2.7 1.7 2.1 1.4.8 3.8 1.5-.4 2.2-2.5 3.8-3.1l1-1Z"/>
    <path fill="#9E9383" d="M86.7 56c-1 .4-2 .2-2.5-.6.6 0 1.3-.4 1.8-.5 0-.4 0-1-.2-1.4.2 1 .5 1.8 1 2.5.6-.4 1.3-1.3 2-1.6.7-.2 1.4.8 2.4.4-.6.5-1.6.9-2.4 1 .2.7.2 1.2 1 1.6h-1.2c0 1.6-1 2.4-2.2 2.7a6 6 0 0 0 0-3.5c.6 2.8-.5 3.7-3 4.2l.5-3c1.3.4 2.4 0 3.5-.6l-.6-1.1Z"/>
    <path fill="#9E917D" d="M86.6 49.2a7.2 7.2 0 0 0-4-2c1 2.8-2.1 3.3-3.5 5 1.2-.2 2.4-.6 3.3.2-1 1.2-2 3-.2 4l1.3-.1c-.3-1.2 0-2.4-.2-3.6a2 2 0 0 1 1-.2c.4.8.8 1 1.5 1.3.2-3 1-3.4 3.5-2.7 0-1.3 4.7-2.7 1.1-3.8 1.9-1 2.6-2.8 3-4.6-.7.2-1.6.1-2.3.3.7-2 1-2.8-1.4-3.3.2.7.6 4.2 0 4.7-.6.6-3-.1-4.2.1l1.4 2.2-1.1.3.8 2.2Z"/>
    <path fill="#FFFAF4" d="M87.5 41.3c.8.4 1.5.7 2.2 1.2-.7.3-1.3.8-2.1.9 0 1 .8 1.5 1.5 2-.3 0-.7.3-1 .4 0 .8.4 1.5 1 2-1 1-2.7 1-4 1.2-.6-.9-.6-.6-1.4-.8L83 51c.6-.1 1.5 0 2.2-.3 0 .6-.3 1.5-.7 2 .7.4.8.4 1.5.2a6 6 0 0 1 .1-2.3c1.2-.5 1.9.6 2.9 1 0-1.3.9-1.5 1.8-1.2 0-1-.4-2.2-.8-3 .6-.2 1-.8 1.3-1h-1.1c-.6-1.3.7-2.4.8-3.6-.6.2-1-.3-1.2-.3l-2.3-1.2Z"/>
    <path fill="#D0C6BF" d="M79.3 47c-.7 1-3 2-3.1.2 1.1-.7 2.4-.9 3.6-1.2.3-.9.3-1.9 0-2.7 1.6-.7 2.2 1.1 2.4 2.3-.4 0-1 .3-1.4.4 1.7.4 2 2.7 0 2.7L79.3 47Z"/>
    <path fill="#A19D87" d="M76.5 59.7c-1-1.4-2.8-2.3-4.1-3.3l2.5-.5c-.5-.7-1.3-1.5-1.2-2.5 1.3-.2 1.4 1.3 2 2.2 1 1.4 2.1 1 1 3.2l-.2.9Zm-1.5.7c-1.6-.9-2.4-2.6-3.8-3.6 0 1 .3 2 .4 3-.7-.3-1.3-.3-2-.4.7.6 1.8 1.1 2.6 1.5-.1.9-.5 1.7-.9 2.6 1.8-.5 2.8-2.6 4.5-3.3l-.8.1Z"/>
    <path fill="#9E9383" d="M70.5 62.4c-1.4-1.3-2.3-3-4-4.3.2 1.3.8 2 1 3.2l-3 .6c1 .2 2.5.8 2.6 2-.2 0-.6.4-.6.4 1.4 0 2.9-.4 4.3-.7l-.3-1.2Zm-1.8 3.2c-1.7-.1-3.3-1.6-4.8-2.3.3.9 1 1.7 1.6 2.4-.8.3-1.5.7-2 1.3 2.7.1 1.7 1.7 2.2 3.6 1.5-1.4 1.2-4.4 3.4-5h-.4ZM62.3 70c-1.6-.1-4 0-5.4-.8 1 .7 2.2 1 2.8 2-1 .7-2 1.5-2.3 2.6 1.3 0 2.3-1 3.3-1.3.3 1 .4 2.6 1 3.3.5-1.6 0-4 1.5-5.1l-.9-.6Z"/>
    <path fill="#D5C7B6" d="M54.7 66.3c-1.9 0-3.4-2.4-5.3-2.6.7 2.3.6 2.2-1.3 4 .8.2 2-.2 3.1-.3-.4.9-.8 1.9-.8 2.9 1-1.3 2.7-3 4.4-3.2l-.1-.8Z"/>
    <path fill="url(#c)" d="M85.4.3h16.1v42.5H85.4z"/>
    <path fill="#DBE0D4" d="M100.2 42.1a1 1 0 0 1-.7.1 43 43 0 0 1-5.4-8.4c-1.1-2.3-3.4-8.1-2.5-10.6.6 1.8.8 3.6 1.6 5.3a44 44 0 0 0 2.4 4.4c1 1.6 1.9 3 2.5 4.8.6 1.4 1.3 4.1 2.6 4.8l-.5-.4Z"/>
    <path fill="url(#d)" d="M.4 49.3h55.4v14.2H.4z"/>
    <path fill="#C1C4BF" d="M50.2 66c-3.3.8-6.6 0-9.9.6a17 17 0 0 0-8.3 4.3 34.6 34.6 0 0 0-11.8 15.2c-1 3.6-1.4 7.5-2 11.2.3-4.3 3.7-7.6 6-10.7 2.2-2.8 3.6-6.2 5.3-9.2a24 24 0 0 1 6.7-7.5c2.3-1.8 7.4-4.7 10.4-3.3l3.6-.7Z"/>
    <path fill="url(#e)" d="M29.4 52.9h26.9v10.6H29.4z"/>
    <path fill="#7D7F77" d="M52.6 55.7c.3-.8.9-1.5 1.6-2-1.4-4.5-11.2-1.3-14.1-2.4 2.8-.9 15.9-2.8 16.1 2.1l-3.6 2.3Z"/>
    <path fill="#8E9788" d="M53.3 55.2c-2.6-1-7.8 1-10.6 1.6-3.4.7-6.7 1.7-10 1.1-6.2-1-13 .2-18.4-3.7 6 2.3 12 3.6 18.4 3 3.3-.4 5.7-1.3 9-.9 3.2.5 6.4-.5 9.6-1.1h2Z"/>
    <path fill="#9E9383" d="M60.4 60.3c-.4-1.7-1.2-3.3-1.8-4.9-.5 1.2.3 3.5.6 5a4 4 0 0 0-2.6-1.8c1.4 1 .8 2.3-.4 2.8 1.2-.3 3.1-.1 4 .1l.2-1.2Z"/>
    <path fill="#817463" d="M117.2 62.8c-.7 1.3-3.7 3.5-5.1 2.5.5-.6.5-1.4.7-2-1 .2-2-.3-2.5-1.1 1-.4 2.2-.5 3.3-.7-.7-.7-.7-1.6.1-2 .5.6 1 1.3 1.3 2 .5-.4 1.3-.8 1.8-1.3 0 .9.3 1.7.4 2.6Z"/>
    <path fill="#9E9383" d="M92 54.7c-.7.9-1.6 1.2-2.5.8.5-.3.8-1 1.3-1.4-.3-.3-.5-.8-1-1 .6.7 1.4 1.2 2.2 1.5.3-.6.4-1.8.9-2.4.4-.5 1.5-.1 2.2-1a7 7 0 0 1-1.6 2.2c.7.5.8 1 1.8.8-.3.2-.6.6-1 .7.9 1.3.4 2.5-.5 3.5a6 6 0 0 0-1.8-3c2 2 1.6 3.4-.4 5.1l-1-2.7c1.2-.5 2-1.4 2.5-2.5l-1.1-.6Z"/>
    <path fill="#BABAB4" d="M127.2 62.2c-.8 0-1.4.5-2 .8l-.8.4-2.5 1c-1.4.4-3 1-4.8 2l-2 1-2.6 1.3c-.6.3-1 .9-1.6 1.5-.6.6-1.3 1.4-2 1.5l.2.9c.9-.2 1.7-1 2.4-1.9.5-.5 1-1 1.4-1.2a37 37 0 0 1 4.6-2.4 34.6 34.6 0 0 1 7.2-2.9l.9-.5c.5-.3 1-.6 1.6-.6v-.9Z"/>
    <path fill="#90887B" d="M116 67c-1.6.3-2.8-.6-4.4.2.6.6 1.5.6 2.5.7.6 1.2-.6 2.2-.9 3.3 1.6-.6 3.7-2.9 4.6-4.4-1.5-.8-2.8-3.5-4.8-2.7 1 .6 1.2 1.6 1 2.6l2 .4Z"/>
    <path fill="#DABD9A" d="M108.8 71.7c.3 0 .4-.2.4-.5-.7-.6-1.6-1.1-2.3-1.5 1 1 1 2.2.2 3.5.5-.3 1-.2 1.5-.5 0 .5.2 1.2 0 1.8 1.6-.2.4-2 2-2.3l-1.8-.5Z"/>
    <path fill="#9E9383" d="M53.2 65.5c-1 .5-2 1.5-2.1 2.6l2.8-.5v-.7l-.7-1.4Z"/>
    <path fill="#817463" d="M102.2 64.2c-.6-.7-1.1-1.4-2-1.9.9.4 1.8.4 2.7.2.3.6.2 1.2-.5 1.4l-.2.3Zm-.9.2-.1-.5c-.4 0-1 0-1.3.3.2.3.5.5 1 .6l.4-.4Z"/>
    <path fill="#9E8A67" d="M110.5 71.5c-.8 1.2-2.4-.9-3.3-1.6 1.2.6 2 .4 3.3.3.2.5.3 1.2 0 1.6v-.3Z"/>
    <path fill="#A59586" d="M125.5 63c-1 1.3-3.3 2.2-4.5 2.6.7-.2 1.4 0 2 .2a12 12 0 0 1-.5 3.3l2.5-2.3c.1 1.1.7 2 1.5 2.3-.5-1.2-1.2-4.2-.2-5.2l-.9-.9Z"/>
    <path fill="#6E6157" d="M137.6 59.1c-.7-.8-1.4-1.5-2-2.5.6 1 1.5 1 2.5.7l.3 1.4-.8.4Zm3.6-.1-2 .4v.5c-.4.5-.4 0-.4.7.9-.8 1.5-2 3-1.4l-.6-.2Zm2.1.2c-1 .5-1.2 1.4-2 2.2 1.4-.1 3.2-1 2.5-2.6l-.5.4Z"/>
    <path fill="#6E6157" d="M139.5 60c3.3.1.3-2.9.3-3.4.1-2.1 2.8 1.3 2.8 2.4l-3 1ZM129 57.2c.2-.6 0-1.4-.1-2 1.5-.3 1.9 2.3 1.2 3.3l-1.2-1.3ZM89.6 46.7c-.6-1.3.7-1.7 1.2-2.6.5 1 .4 2.4.1 3.2l-1.3-.6Zm-9.5-3.2c1-1 1.7 0 1.7 1.1l-1.7-1.1Zm-3.2 3.3c-.2.3-.3.6 0 1.1a3 3 0 0 0 1.9-.6l-1.9-.5Zm4.7-.3c.6.4.7 1.6-.3 1.8l.3-1.8ZM65.2 65.9c0 1.4 3.3 1.5 3.8-.4l-3.8.4Zm-13.9 0c1.6-1.5 2.6-.8 2.9 1.2l-3-1.2Zm35.3-10-.9-.2 1 .2Zm22.2 1.1c1.3 2.3 2.6-.1 3.3-1l-3.3 1Zm31.5 7c0 1.6 1.8 2.6 2.5.6l-2.5-.7Z"/>
    <path fill="#827D6D" d="M131.4 66.8c-.4-.9-1.3-2.6-2.3-2.8.2.5.1 1.2.3 1.7l-2 .4c.9.2 1.6.3 2.4.2l.3 1.3c.6-.2 1-.7 1.5-1.1l-.2.3Z"/>
    <path fill="#CCE0BF" d="M59.1 59.8c0-1-1.2-2.8-2-3.6 0 1 .4 1.8 0 2.7-.5 0-1.2-.4-1.7-.8 1.3 1 3 1.3 4 2.8l-.3-1Zm-5.7-9.2c-.6-2.9-5.5-4.7-6.6-8-1.1-3.7-1.6-8-2.3-12l5.5 9.1c2 3.6 3.3 7.7 5 11.4l-1.6-.5ZM43 47c-3.9-1.1-6.6-4-10.7-4.5-3-.3-6.4-1-9.1.1 3.3.1 7.6 4.2 10.6 5.7 3 1.4 10.5 3 13.6 1.1L43 47Zm102.8-5c-3.6-1.8-5.8-5-9.7-6.3-2.8-.9-6.1-2.2-9-1.5 3.2.7 6.7 5.5 9.5 7.4 2.7 2 9.8 4.8 13.1 3.6l-3.9-3.2Z"/>
    <path fill="#BABAB4" d="m91.5 35.1.3-.8c-2.4-.9-3.5-3-4.5-5.3l-.6-2.2a11 11 0 0 0-1.4-3.6l-.8.5c.7 1 1 2.2 1.3 3.3l.7 2.4c1 2.4 2.3 4.8 5 5.7Z"/>
    <path fill="#7E6D63" d="M93.6 42.6c.4 0 .5-.4.9-.2-.9-1.3-2.3-2.2-2.8-3.6 1 3 3 1 2.5-1.2 2.2 2.7 1.3 1.7 4.3 1.6-.6 1-2.8 2.2-2.9 3.6l-2-.2Z"/>
    <path fill="#9C8E7D" d="M92.4 30.2c-.6-.5-1.4-1.1-1.7-2l1.6-.3c-.5-1-1.1-1.4-1.7-2.1 1.2-.6 1.9.8 3.2 0l-.8 1.6c1.4-.7 2.6 0 3.1 1.4l-1 .3c.2.4.4.9.7 1.2-1-2.8-3.3-1-1.4.9-.1-.6-.7-1-1-1.5-.8.1-1 .5-1.1 1l.1-.5Z"/>
    <path fill="#D6CBBC" d="M85.8 25c-.8-1.6 1.8-2.3.9-3.8-.6.4-1.5.7-2 1.1-.4-.9-.5-1.6-1.2-2.4-1.3 1.2-.6 2.5-3.2 2.1 1 1.2 3.1 1.1 4.2 2.4l1.3.6Z"/>
    <path fill="#817463" d="M91 37.7c-1.5-.2-4.6-2.2-4.2-3.9.7.3 1.6 0 2.1 0-.5-.9-.4-2 .2-2.8.7.9 1.2 1.9 1.8 2.8.4-.8 1.2-1.2 2-.5l-1.5 1.9c.5.3 1.2.9 1.9 1.1L91 37.7Z"/>
    <path fill="#BABAB4" d="M95.1 46.8c-.3-.7-.9-1.2-1.4-1.6l-.7-.6-1.7-2c-1-1-2.2-2.4-3.7-3.7L86 37.4l-2.3-2c-.4-.4-1.1-.6-1.9-1-.8-.3-1.8-.6-2.1-1.2l-.8.4c.5.9 1.6 1.3 2.6 1.7.7.2 1.3.5 1.7.8l2.2 2 1.7 1.5a29 29 0 0 1 3.5 3.6 38.5 38.5 0 0 0 3.8 4l.7-.5Z"/>
    <path fill="#90887B" d="M86.6 38.1c-.8-1.4-.4-2.8-1.7-4-.4.8 0 1.5.2 2.5-1 1-2.2.3-3.4.4 1.1 1.3 4 2.4 5.8 2.7.2-1.7 2.3-4 .8-5.4-.2 1-1 1.6-2 1.7l.3 2.1Z"/>
    <path fill="#DABD9A" d="M79.7 33c0 .3.3.4.5.2.3-.8.6-1.8.6-2.7-.6 1.4-1.7 1.8-3.1 1.5.4.4.5 1 1 1.3-.6 0-1.1.5-1.8.6.8 1.4 2-.4 3 1l-.2-1.8Z"/>
    <path fill="#817463" d="M84.2 24.2c.5-.8 1-1.5 1-2.5 0 .9.3 1.7.9 2.5-.5.6-1 .7-1.5 0h-.4Zm-.4-.7.4-.3c-.2-.4-.4-.9-.8-1.1-.2.3-.2.6-.2 1l.5.4Z"/>
    <path fill="#9E8A67" d="M80.4 34.6c-1.4-.3 0-2.6.4-3.7-.2 1.4.3 2 .9 3.2-.5.4-1 .7-1.5.6l.2-.1Z"/>
    <path fill="#A59586" d="M93.7 45.5c-1.4-.4-3-2.3-4-3.3.5.6.5 1.4.6 2-1 .3-2.1.7-3.2.7l3 1.5c-1 .5-1.7 1.4-1.6 2.3 1-1 3.5-2.7 4.7-2.2l.5-1Z"/>
    <path fill="#6E6157" d="M93.4 27.7c-1.7 2 1 2.4 2 2.8l-2-2.8Z"/>
    <path fill="#C3D5CF" d="M101 50.3a24.1 24.1 0 0 1-4-7.8 17 17 0 0 1 1.4-8.3c1-3 2.2-5.6 3.5-8.4.9-2 1.4-4.4 2.7-6.2a168.9 168.9 0 0 0-.6 22.5c0 2.6 1 8.1 0 10.4l-3-2.3Z"/>
    <path fill="url(#f)" d="M53 31h50.9v26.2H53z"/>
    <path fill="url(#g)" d="M76.5 48.3h27.8v8.6H76.5z"/>
    <path fill="#7D7F77" d="M100 54.6c.6-.7 1.4-1 2.3-1.1.7-4.7-9.5-6.2-11.6-8.5 3 .5 15.5 4.6 13.5 9.1l-4.2.5Z"/>
    <path fill="#8E9788" d="M100.8 54.4c-2-2-7.5-2.5-10.2-3.3-3.3-1-6.8-1.5-9.5-3.5-5-3.7-11.7-5.6-14.8-11.5 4.4 4.7 9.2 8.5 15.2 10.8 3 1.2 5.7 1.5 8.4 3.3 2.7 1.8 6 2.4 9.1 3.3l1.8.9Z"/>
    <path fill="#CCE0BF" d="M103 50.3c.7-2.8-2.9-6.7-2.3-10 .5-4 2.1-8 3.2-11.8l.8 10.6c.2 4-.4 8.3-.5 12.4l-1.3-1.2Zm-7.7-7.9c-3-2.6-4.2-6.4-7.6-8.7-2.5-1.7-5.3-3.9-8.2-4 2.9 1.6 4.9 7.1 7 9.8 2 2.6 8 7.4 11.6 7.1l-2.8-4.2Z"/>
    <path fill="#BABAB4" d="m128 75.3-.4.8c2.4 1 3.4 3.2 4.3 5.5l.5 2.2c.3 1.3.6 2.6 1.3 3.6l.7-.4c-.6-1-.8-2.2-1.1-3.4l-.6-2.3c-1-2.5-2-5-4.8-6Z"/>
    <path fill="#7E6D63" d="M126.2 67.7c-.4 0-.4.3-.9.2.8 1.3 2.2 2.3 2.6 3.7-.9-3-2.9-1-2.5 1-2-2.7-1.2-1.6-4.2-1.8.6-.8 3-2 3-3.4l2 .3Z"/>
    <path fill="#9C8E7D" d="M126.8 80.1c.7.6 1.4 1.3 1.6 2.2-.5-.1-1.1.2-1.6.2.5 1 1 1.4 1.6 2.2-1.2.5-1.8-1-3.1-.1l.8-1.7c-1.4.7-2.6-.1-3-1.5.4 0 .8-.2 1-.3l-.6-1.2c.8 2.8 3.3 1 1.4-.8.1.6.6 1 1 1.6.8-.2 1-.6 1-1.1v.5Z"/>
    <path fill="#D6CBBC" d="M133.2 85.7c.7 1.6-1.9 2.2-1 3.7.5-.4 1.4-.6 2-1 .4.9.4 1.6 1 2.5 1.4-1.2.7-2.5 3.4-2-.9-1.3-3.1-1.3-4.2-2.6l-1.2-.6Z"/>
    <path fill="#817463" d="M128.6 72.7c1.5.3 4.5 2.5 4 4.1-.7-.3-1.5 0-2.1 0 .5.9.3 2-.3 2.7l-1.7-2.9c-.5.8-1.2 1.2-2 .5l1.6-1.9c-.5-.3-1.2-1-1.8-1.2a66 66 0 0 0 2.3-1.3Z"/>
    <path fill="#BABAB4" d="M124.9 63.5c.3.7.8 1.2 1.4 1.6l.6.7 1.7 2c.9 1.2 2 2.5 3.4 3.9l1.6 1.6 2.1 2c.5.5 1.2.8 1.9 1 .8.5 1.8.9 2 1.4l.8-.4c-.4-.8-1.4-1.3-2.5-1.7l-1.6-.9a39.8 39.8 0 0 1-3.7-3.7 31.1 31.1 0 0 1-3.3-3.8l-1.7-2-.7-.7a4 4 0 0 1-1.2-1.4l-.8.4Z"/>
    <path fill="#90887B" d="M133 72.5c.8 1.4.3 2.9 1.5 4.2.4-.8.2-1.6 0-2.6 1-1 2.2-.2 3.3-.2-1-1.4-3.9-2.6-5.6-3-.3 1.7-2.4 3.8-1 5.4.2-1 1.1-1.6 2.1-1.6l-.3-2.2Z"/>
    <path fill="#DABD9A" d="M139.7 77.9c-.1-.3-.3-.4-.5-.2-.4.8-.7 1.8-.8 2.7.7-1.4 1.8-1.7 3.2-1.4-.3-.4-.4-.9-.9-1.3.6 0 1.2-.5 1.8-.5-.7-1.5-2 .3-2.9-1.1l.1 1.8Z"/>
    <path fill="#817463" d="M134.8 86.6a5 5 0 0 0-1.2 2.4 4 4 0 0 0-.7-2.5c.5-.6 1-.7 1.5 0h.4Zm.4.7c-.2 0-.3.1-.4.3 0 .3.3.8.6 1 .3-.2.3-.6.3-1l-.5-.3Z"/>
    <path fill="#9E8A67" d="M139 76.3c1.4.4 0 2.6-.5 3.7.2-1.3-.2-2-.8-3.2.5-.4 1-.7 1.5-.6l-.2.1Z"/>
    <path fill="#A59586" d="M126.2 64.8c1.5.5 3 2.4 3.8 3.5-.4-.6-.4-1.4-.4-2 1-.3 2.2-.6 3.3-.6l-3-1.6c1-.5 1.8-1.3 1.7-2.2-1 1-3.6 2.5-4.8 1.9l-.6 1Z"/>
    <path fill="#6E6157" d="M125.8 82.6c1.7-2-1-2.5-2-2.9l2 3Z"/>
    <path fill="#C3D5CF" d="M119.2 59.7a24 24 0 0 1 3.6 8c.5 2.6-.8 5.8-1.7 8.2a71 71 0 0 1-4 8.2c-1 1.9-1.5 4.4-3 6a169 169 0 0 0 1.5-14.6l.2-7.7c0-2.7-.7-8.2.6-10.4l2.8 2.3Z"/>
    <path fill="url(#h)" d="M116.3 53.1h49.9v27.8h-49.9z"/>
    <path fill="url(#i)" d="M115.8 53.4h27.8v9.4h-27.8z"/>
    <path fill="#7D7F77" d="M120.4 55.5c-.6.6-1.5 1-2.3 1-1 4.6 9.2 6.6 11.2 9-3-.6-15.3-5.4-13.2-9.8l4.3-.2Z"/>
    <path fill="#8E9788" d="M119.5 55.6c2 2.1 7.4 2.9 10.1 3.8 3.3 1 6.7 1.8 9.3 4 4.8 3.9 11.5 6 14.3 12.1-4.2-5-8.7-9-14.7-11.5-3-1.3-5.6-1.7-8.2-3.7-2.6-2-5.9-2.7-9-3.7l-1.7-1Z"/>
    <path fill="#CCE0BF" d="M117.3 59.6c-1 2.8 2.5 6.8 1.8 10.2-.8 3.8-2.6 7.8-3.8 11.5l-.4-10.6c0-4 .9-8.3 1.2-12.3l1.2 1.2Zm7.3 8.2c2.8 2.8 3.8 6.7 7.2 9.1 2.3 1.8 5 4.1 8 4.4-2.9-1.7-4.6-7.4-6.6-10.1-2-2.8-7.7-7.8-11.3-7.7l2.7 4.3Z"/>
    <path fill="#BABAB4" d="m173.3 46.2-.2-.8c-2.5.3-4.5-1.2-6.3-2.7l-1.6-1.7c-.9-1-1.8-2-2.9-2.6l-.4.8c1 .5 1.8 1.5 2.6 2.4l1.7 1.7c2 1.7 4.2 3.3 7 3Z"/>
    <path fill="#7E6D63" d="M178.5 52c.3-.3.2-.5.6-.5-1.3-.8-3-1-4-2 2.2 2.1 3-.5 1.6-2.2 3.2 1.4 2 .9 4.6-.5-.1 1.1-1.5 3.3-1 4.5l-1.8.7Z"/>
    <path fill="#9C8E7D" d="M171.8 41.5c-.8-.2-1.8-.4-2.4-1.1.5-.2 1-.8 1.3-1-.8-.6-1.6-.7-2.4-1.1.8-1 2 0 2.8-1.5v1.9c1-1.3 2.4-1.2 3.4-.2l-.8.8 1.2.8c-2-2.1-3.4.6-.8 1.3-.4-.4-1.1-.6-1.6-.9-.7.5-.6 1-.5 1.5l-.1-.5Z"/>
    <path fill="#D6CBBC" d="M163.6 39.7c-1.4-1 .5-2.8-.9-3.7-.3.6-1 1.2-1.3 1.8-.8-.5-1.2-1.2-2.1-1.6-.7 1.7.5 2.5-2 3.4 1.4.6 3.3-.4 4.9.2h1.4Z"/>
    <path fill="#817463" d="M174 48.8c-1.5.5-5.2 0-5.6-1.6.8-.1 1.4-.7 2-1a2.5 2.5 0 0 1-1.2-2.5c1 .4 2 1 2.9 1.7 0-1 .5-1.6 1.5-1.4l-.5 2.4c.7 0 1.5.3 2.2.2l-1.4 2.2Z"/>
    <path fill="#BABAB4" d="M181.7 55c-.6-.4-1.4-.6-2-.7l-.9-.2-2.4-1c-1.4-.6-3-1.2-5-1.7l-2.1-.6-2.9-.8h-2.1c-1 0-2 .2-2.5-.1l-.5.7c.8.5 2 .4 3 .3.8-.1 1.4-.2 2 0a74.8 74.8 0 0 0 5 1.4c1.8.4 3.4 1 4.7 1.6l2.5 1 1 .2c.6.2 1.2.3 1.6.6l.6-.7Z"/>
    <path fill="#90887B" d="M170.2 51.1c-1.4-.8-1.7-2.3-3.4-2.8 0 .9.7 1.4 1.3 2.2-.3 1.3-1.8 1.2-2.8 1.8 1.6.7 4.6.4 6.4-.1-.6-1.7.3-4.6-1.7-5.3.2 1-.3 2-1.1 2.5l1.3 1.8Z"/>
    <path fill="#DABD9A" d="M161.7 49.7c.3.2.4.2.6 0-.1-1-.4-2-.7-2.8 0 1.6-.7 2.4-2.1 2.8.5.1.8.5 1.4.6-.5.4-.7 1-1.3 1.4 1.4 1 1.7-1.3 3-.5l-.9-1.5Z"/>
    <path fill="#817463" d="M161.8 39.7c0-.9.1-1.7-.2-2.7a4 4 0 0 0 1.9 2c-.2.6-.6 1-1.3.6l-.4.1Zm-.8-.4c.2-.1.3-.3.3-.4-.3-.3-.7-.6-1.1-.7-.1.4 0 .7.3 1l.6.1Z"/>
    <path fill="#9E8A67" d="M163 50.7c-1.3.4-1.1-2.3-1.3-3.4.5 1.3 1.2 1.6 2.3 2.4-.2.6-.6 1.1-1 1.3v-.3Z"/>
    <path fill="#A59586" d="M179.8 54.5c-1.4.3-3.8-.6-5-1.1.7.3 1 1 1.4 1.5a12 12 0 0 1-2.6 2.1h3.4c-.6.9-1 2-.4 2.7.4-1.3 2-3.9 3.3-4v-1.2Z"/>
    <path fill="#6E6157" d="M171.6 38.8c-.6 2.6 2 1.7 3.1 1.6l-3.1-1.6Z"/>
    <path fill="#CCE0BF" d="M235.3 45.3c-3.2.2-6-2.2-8.7-3.2-3-1.1-5.8-1.9-8.7-3.2-5.8-2.6-12.3-4-18-6.4 5-.3 10-.5 14.7 1 2.2.7 4 2 6.2 3 1.1.5 2.4.8 3.6 1.5 1.2.8 2.3 2 3.7 2.6l7.2 4.7Z"/>
    <path fill="#C3D5CF" d="M188.5 55.5c-2-1-5.7-3.2-7.1-5.1-1.7-2.1-2.1-5.5-2.5-8-.4-3-.5-6-.6-9 0-2.3-.7-4.7-.3-6.8a169.2 169.2 0 0 0 9.5 20.3c1.3 2.3 4.6 6.8 4.6 9.3l-3.6-.7Z"/>
    <path fill="#C1C4BF" d="M175 71.8c1.8-1.4 4.6-1.2 6.4-.9 2.3.4 4.1 0 6.4-.4-1.8.6-3.2-.4-4.8-.7-1.8-.3-3.4 0-5.3.4l-2.7 1.6Z"/>
    <path fill="#BABAB4" d="m251.8 65.5-.6-.6c-1.7 2-4.1 2.2-6.5 2.3-.8 0-1.5 0-2.3-.2-1.3-.1-2.7-.3-3.9 0l.3.9c1-.3 2.3-.1 3.5 0 .8 0 1.6.2 2.4.1 2.6 0 5.3-.3 7.2-2.5Z"/>
    <path fill="url(#j)" d="M212.1 66.3H263v36.5h-50.9z"/>
    <path fill="#BABAB4" d="m281 70.4-.8-.4c-2.1 4-4.5 4-9 2.6l-.3.8c4.8 1.5 7.7 1.5 10-3h.1Z"/>
    <path fill="#BABAB4" d="m295.3 60.3-.1-.9c-1.3.3-2.1 1.7-3 3.3a8.3 8.3 0 0 1-2.1 2.9c-1.4 1-4 2.6-6 3.3a37.3 37.3 0 0 1-15.7 1.1v-.2l-.6.1-3 .4 3 .5c5.3.9 11.7.5 16.5-1.1 2.1-.7 4.8-2.4 6.3-3.4A9 9 0 0 0 293 63c.7-1.4 1.4-2.6 2.3-2.8Z"/>
    <path fill="#B6B5B2" d="M311 59c-1.7-2.3-4.9-3.5-8-4.6a91 91 0 0 0-8.4-2.7l-1.8-.5c-4.8-1.3-11.4-3-14.2-7l-1 .7c3 4.5 9.9 6.3 14.9 7.6l1.7.4c2.8.8 5.7 1.7 8.4 2.7 2.1.8 5.8 2 7.4 4.1l1-.8Z"/>
    <path fill="#9D9D9C" d="M319.8 61.4c-7-2-14-3.6-21.1-2.9-6.5.7-12.8 2.4-19 4-4 1-8 2-12.1 2.8l-2.1.4c-4.4.9-9 1.8-13.2 1.8v1.3c4.3 0 9-1 13.4-1.8l2.1-.4c4.1-.8 8.3-1.9 12.3-2.9 6-1.6 12.4-3.2 18.7-3.9 7-.7 13.7 1 20.6 2.9l.4-1.3Z"/>
    <path fill="#9C9990" d="m263.6 61.4-3.3-2.4a19.7 19.7 0 0 0-9-4.6l-2.5-.8c-2.4-.8-5.2-2-7.3-4L240 48a20.4 20.4 0 0 1-4.6-5.3l-1.1.5c.9 2 3 4 4.8 5.7l1.5 1.5a20 20 0 0 0 7.7 4.3l2.7.8c1.7.5 3.4 1 5 2 1.2.6 2.4 1.5 3.5 2.4 1 .9 2.2 1.8 3.4 2.5l.7-1.1Z"/>
    <path fill="#B7B6AD" d="M274 63.4c-2.6-1.4-6.1-1.8-9.3-2.2L263 61a168.7 168.7 0 0 0-29.9-1.6l-1.8-.3c-4.1-.5-7.6-.8-8.6.8l1 .8c.7-1.1 5.2-.5 7.4-.3l2 .3 5.4-.1 4.4-.1c5.5 0 11.8.6 20 1.8l1.6.2c3 .4 6.5.8 9 2l.6-1.1Z"/>
    <path fill="#D3CEBC" d="m226 61-.6-.7c-3.7 4.3-6.3 6.3-8.2 6.3-1.5 0-2.6-1.1-4-2.6-.8-1-2-2.2-3.3-3.1-1.3-.8-2.5-1.1-3.8-1.4-.6 0-1.2-.2-1.7-.4l-2.2-.8c-3-1.2-4-1.5-20 1.3l.1.9c15.9-2.9 16.8-2.5 19.5-1.4l2.3.9 1.8.4c1.3.3 2.4.5 3.5 1.2 1.3.8 2.3 2 3.3 3 1.3 1.5 2.6 2.9 4.5 2.9 2.2 0 5-2 8.8-6.6Z"/>
    <path fill="#D3CEBC" d="M227.7 62.3a48 48 0 0 1-37.6 8l.1-.4-2.2.2c-1 0-2 0-2.9.4l-.3-.8c1-.4 2.1-.5 3.2-.5 1 0 1.8 0 2.7-.3a17 17 0 0 0 4.3-2.1c3.4-2.4 7-3.3 10.4-4l3.8-.8c2.6-.6 5.4-1.2 8-1.4 2.8-.3 5.2 0 7.8.5l2.5.4h1l-.8.7Zm-1.4-.1L225 62c-2.5-.4-4.9-.8-7.6-.5a65 65 0 0 0-11.7 2.2 26 26 0 0 0-10.1 3.8c-1.4 1-2.7 1.7-4.1 2.1 13.4 2 26-.8 35-7.4Z"/>
    <path fill="#736A60" d="M284 62a3 3 0 0 1-1.6-2.1c.9-.4 1.7.1 2.4.6.2-.6.6-1.3.6-2 .6.9.7 2 1 2.9.6-.2.4.2.8.3l-3.2.2Z"/>
    <path fill="#B8A697" d="M273.4 62.4c-1.2.4-2.3.4-3.5 0 .2 1 1 2 .6 3 1-.4 2-1 3.2-1-1 .6-.6.9-.7 1.7.5-.3 1-.2 1.4-.6 0 .5.2 1.4.1 2 .8-2.4 1.7-2 3.9-2.3.8 1.7-1.3 2.3-2.6 2.5.5 1.2 1.7 1.5 1.8 3.2.4 0 .6 0 1-.2-.2-.5 0-1.4-.2-1.9l.7-.3c-.2-1.3-.6-2.8-.7-4.2 1.2-.3 2.5-.2 3.1-1.4-2.5.9-4.3-1.3-4.6-3.5a4 4 0 0 1 0 2.6c-.7-.2-1.4-.3-2.3-.2l.1.8-1.2-.2Z"/>
    <path fill="#7C7666" d="M269.1 65.3c-1 0-2-.5-3-1 .2.3.1.7.2 1a4 4 0 0 0-2.5 1.5 5 5 0 0 0 2.3-.1l.3 1c.6-.2 1.4 0 2-.2l.3 1.4c.5 0 .6 0 1-.2.2-1 .5-2.3 1.6-2.7l-2.1-.7Z"/>
    <path fill="#8F7E70" d="M267.3 62c-.5-1.3-1.9-3.7-3.2-4.3 0 1 .3 1.8.4 2.7-.8 0-1.9-.1-2.7.3 1.4.6 1.6 1.7.6 3 1.2-.4 3.2-1.8 4.2-1.2l.7-.5Z"/>
    <path fill="#908C7F" d="M271.1 72.8c-.7-1.2-1.4-2.5-2.3-3.7 0 .7.6 1.7 1 2.5-.8.9-2 .5-3.1.6.5.5.8 1 1.7 1-.7.7-1.6 1.3-1.2 2.3l3-1.8 1-.9Z"/>
    <path fill="#7E6D63" d="M259.6 66.3c0-.4-.2-.5.1-.9-1.5.3-2.9 1.3-4.3 1.3 3 0 1.9-2.4-.3-2.7 3.3-1.1 2-.6 3-3.5.7 1 1.1 3.5 2.4 4l-.9 1.8Z"/>
    <path fill="#9C8E7D" d="M247.6 63c-.7.3-1.6.8-2.5.7.2-.4.1-1.1.3-1.5-1 0-1.7.5-2.6.8 0-1.4 1.5-1.4 1-3l1.4 1.3c-.2-1.5 1-2.4 2.4-2.4V60c.4 0 .9 0 1.3-.2-2.9-.1-2 2.8.3 1.6-.5 0-1.2.3-1.8.4-.1.8.2 1.1.7 1.4l-.5-.3Z"/>
    <path fill="#D6CBBC" d="M240.3 67.1c-1.7.2-1.5-2.4-3.2-2.1.2.7.1 1.6.3 2.2-.9.1-1.7 0-2.6.3.6 1.7 2 1.4.8 3.7 1.5-.4 2.2-2.5 3.7-3l1-1Z"/>
    <path fill="#9E9383" d="M223.6 60.2c-1 .3-2 .1-2.5-.6.5 0 1.2-.5 1.8-.5 0-.5 0-1-.2-1.4.1.9.4 1.7 1 2.4.6-.3 1.2-1.3 2-1.5.6-.2 1.4.7 2.4.3-.7.5-1.6.9-2.5 1 .3.8.2 1.3 1 1.7h-1.1c0 1.5-1 2.3-2.3 2.7a6 6 0 0 0 .1-3.5c.6 2.7-.5 3.7-3 4.1l.5-2.9a4 4 0 0 0 3.4-.7l-.6-1Z"/>
    <path fill="#9E917D" d="M223.5 53.4a7.2 7.2 0 0 0-4-2c1 2.8-2.2 3.3-3.5 5 1.1-.2 2.4-.7 3.3.2-1 1.1-2 2.9-.2 3.9l1.2-.1c-.2-1.2.1-2.3-.1-3.5a2 2 0 0 1 1-.2c.4.8.8 1 1.5 1.2.2-3 1-3.4 3.5-2.7 0-1.3 4.7-2.7 1-3.8 2-1 2.7-2.8 3-4.5-.6.1-1.5 0-2.2.3.7-2 1-2.8-1.4-3.3.2.6.5 4.2 0 4.6-.6.6-3.1 0-4.3.2l1.4 2.1a2 2 0 0 1-1 .3l.8 2.3Z"/>
    <path fill="#FFFAF4" d="m224.4 45.5 2.1 1.1c-.7.4-1.3.8-2 1 0 .9.7 1.5 1.4 2l-1 .3c0 .9.4 1.6 1 2-1 1-2.7 1.1-4 1.3-.5-1-.6-.7-1.4-.8l-.7 2.8c.7-.2 1.6-.1 2.3-.3a6 6 0 0 1-.7 2c.6.4.8.4 1.5.1-.2-.8-.2-1.5 0-2.3 1.2-.5 2 .6 3 1 0-1.2.8-1.5 1.8-1.2 0-1-.4-2.1-.9-3 .7-.2 1-.7 1.3-1h-1c-.6-1.3.7-2.4.7-3.6-.6.2-1-.2-1.2-.2l-2.2-1.2Z"/>
    <path fill="#D0C6BF" d="M216.2 51.1c-.7 1.1-3 2-3.2.3 1.2-.8 2.4-1 3.7-1.3.3-.8.3-1.8 0-2.7 1.5-.6 2.1 1.2 2.4 2.3-.4 0-1 .4-1.4.4 1.6.4 2 2.7 0 2.8l-1.5-1.8Z"/>
    <path fill="#A19D87" d="M213.3 63.8c-1-1.3-2.7-2.3-4-3.3.8 0 1.6-.3 2.4-.5-.4-.7-1.2-1.4-1.1-2.5 1.3-.2 1.3 1.3 2 2.2 1 1.5 2 1 1 3.3l-.3.8Zm-1.4.7c-1.7-.8-2.5-2.5-3.9-3.6 0 1 .3 2 .4 3-.7-.3-1.3-.2-2-.3.7.6 1.8 1 2.7 1.4-.2 1-.6 1.8-1 2.7 1.9-.6 2.9-2.6 4.6-3.4l-.8.2Z"/>
    <path fill="#9E9383" d="M207.4 66.6c-1.5-1.4-2.3-3-4.1-4.4.2 1.3.9 2 1 3.3l-3 .6c1.1.2 2.5.7 2.7 1.9-.2 0-.6.4-.7.5 1.5-.1 3-.5 4.3-.8l-.2-1.1Zm-1.8 3.2c-1.8-.1-3.3-1.6-4.8-2.3.3.8 1 1.6 1.5 2.4-.8.2-1.4.6-2 1.3 2.7 0 1.8 1.6 2.3 3.5 1.4-1.4 1.1-4.3 3.4-5h-.4Zm-6.4 4.4c-1.6-.2-4 0-5.4-.8 1 .6 2.2 1 2.7 2-.9.7-2 1.5-2.2 2.5 1.3 0 2.2-.9 3.2-1.3.4 1.1.4 2.7 1 3.4.5-1.7.1-4 1.6-5.2l-1-.6Z"/>
    <path fill="#D5C7B6" d="M191.5 70.4c-1.8.1-3.4-2.4-5.3-2.6.7 2.4.7 2.3-1.3 4 .8.3 2.1-.1 3.2-.2-.4.9-.8 1.8-.9 2.9 1-1.4 2.7-3 4.5-3.3l-.2-.8Z"/>
    <path fill="url(#k)" d="M222.2 4.6h16.3v42.5h-16.3z"/>
    <path fill="#DBE0D4" d="M237 46.3a1 1 0 0 1-.6 0A33 33 0 0 1 231 38c-1.2-2.3-3.5-8.2-2.5-10.7.5 1.8.8 3.7 1.5 5.3a44 44 0 0 0 2.5 4.4c1 1.6 1.8 3 2.5 4.8.5 1.4 1.3 4.2 2.6 4.8l-.5-.3Z"/>
    <path fill="url(#l)" d="M137.2 53.6h55.4v13.9h-55.4z"/>
    <path fill="#C1C4BF" d="M187 70c-3.2 1-6.5.1-9.8.7a17 17 0 0 0-8.3 4.3A34.6 34.6 0 0 0 157 90.3c-1 3.5-1.5 7.4-2.1 11 .4-4.2 3.7-7.4 6.1-10.6 2.2-2.7 3.5-6.2 5.3-9.2A24 24 0 0 1 173 74c2.2-1.8 7.3-4.7 10.4-3.3l3.5-.6Z"/>
    <path fill="url(#m)" d="M166.3 57h26.9v10.6h-26.9z"/>
    <path fill="#7D7F77" d="M189.5 59.9c.3-.9.8-1.6 1.6-2-1.5-4.6-11.3-1.3-14.2-2.4 2.9-1 16-2.8 16.2 2l-3.6 2.4Z"/>
    <path fill="#8E9788" d="M190.2 59.3c-2.7-.9-7.8 1.1-10.6 1.7-3.4.6-6.8 1.6-10 1-6.2-1-13.1.3-18.5-3.6a40 40 0 0 0 18.4 2.9c3.3-.3 5.8-1.3 9-.8 3.2.4 6.5-.6 9.7-1.2h2Z"/>
    <path fill="#9E9383" d="M197.3 64.5c-.4-1.7-1.2-3.3-1.9-5-.4 1.3.4 3.6.7 5a4 4 0 0 0-2.7-1.8c1.4 1 .9 2.3-.3 2.9a9 9 0 0 1 4 .1l.2-1.3Z"/>
    <path fill="#817463" d="M254 67c-.7 1.2-3.6 3.4-5 2.4.4-.5.5-1.4.7-2-1 .2-2-.3-2.6-1 1-.4 2.2-.6 3.3-.8-.6-.7-.7-1.5.2-2l1.3 2c.5-.3 1.3-.7 1.7-1.3l.5 2.6Z"/>
    <path fill="#9E9383" d="M228.8 58.9c-.7.8-1.6 1.1-2.5.8l1.3-1.4c-.3-.4-.5-.8-.9-1.1.6.7 1.3 1.2 2.1 1.6.4-.6.4-1.8 1-2.5.3-.4 1.5 0 2.1-.9-.3.8-.9 1.6-1.6 2.1.7.5.9 1 1.8.9l-1 .7c1 1.2.5 2.4-.4 3.4a6 6 0 0 0-1.8-3c2 2 1.5 3.4-.4 5.2l-1.1-2.8c1.2-.4 2-1.3 2.5-2.4l-1-.6Z"/>
    <path fill="#BABAB4" d="M264 66.4c-.7 0-1.4.4-2 .8l-.8.4-2.4.9c-1.4.5-3.1 1-4.8 2l-2 1-2.7 1.4c-.5.3-1 .8-1.6 1.4-.6.7-1.3 1.5-1.9 1.5l.1 1c1-.2 1.7-1 2.5-2l1.3-1.2a37 37 0 0 1 4.7-2.3c1.7-1 3.3-1.5 4.7-2l2.4-1c.3 0 .6-.2 1-.4.5-.3 1-.6 1.6-.7l-.1-.8Z"/>
    <path fill="#90887B" d="M252.9 71.2c-1.6.3-2.8-.7-4.4.1.6.6 1.4.7 2.4.8.6 1.2-.5 2.1-.8 3.2 1.6-.5 3.6-2.8 4.6-4.3-1.5-.9-2.9-3.6-4.8-2.8.9.6 1.2 1.6.9 2.6l2 .4Z"/>
    <path fill="#DABD9A" d="M245.7 75.8c.3 0 .4-.1.3-.4-.7-.6-1.5-1.2-2.3-1.6 1.1 1.1 1 2.3.3 3.5.5-.2 1-.1 1.5-.5v1.9c1.6-.2.3-2 1.9-2.4l-1.7-.5Z"/>
    <path fill="#9E9383" d="M190 69.7c-1 .4-2 1.4-2 2.5.9 0 1.8-.2 2.7-.5V71l-.7-1.3Z"/>
    <path fill="#817463" d="M239 68.4c-.6-.8-1-1.5-2-1.9 1 .3 1.8.4 2.7.1.4.7.3 1.2-.5 1.5l-.2.3Zm-.8.1-.1-.5c-.4 0-1 .1-1.3.3.2.4.5.5 1 .6l.4-.4Z"/>
    <path fill="#9E8A67" d="M247.3 75.7c-.8 1.2-2.4-1-3.2-1.7 1.1.7 1.9.5 3.2.3.3.6.3 1.2 0 1.6v-.3Z"/>
    <path fill="#A59586" d="M262.3 67.2c-1 1.2-3.2 2.1-4.5 2.5.7-.2 1.4 0 2 .2a12 12 0 0 1-.4 3.3l2.4-2.2c.2 1 .7 2 1.6 2.2-.6-1.2-1.2-4.1-.3-5.1l-.8-.9Z"/>
    <path fill="#6E6157" d="M274.5 63.3c-.8-.8-1.5-1.5-2-2.5.5 1 1.4.9 2.4.6.2.4.4 1 .4 1.4l-.8.5Zm3.5-.1c-.6 0-1.3.2-2 .4v.5c-.3.5-.4 0-.3.7.8-.8 1.5-2 3-1.5l-.7-.1Zm2.1.2c-1 .4-1.2 1.4-1.9 2.1 1.3 0 3.2-1 2.4-2.5l-.5.4Z"/>
    <path fill="#6E6157" d="M276.4 64c3.3.3.3-2.7.3-3.2.1-2.2 2.7 1.2 2.8 2.4l-3.1.9Zm-10.6-2.6c.2-.6.1-1.4 0-2 1.5-.4 1.8 2.2 1.1 3.2l-1.1-1.2Zm-39.4-10.5c-.6-1.3.7-1.8 1.3-2.6.4 1 .4 2.4 0 3.2l-1.3-.7Zm-9.4-3.3c.9-1 1.6.1 1.7 1.2l-1.8-1.2Zm-3.3 3.4c-.2.3-.3.6 0 1 .7.1 1.4-.1 2-.5l-2-.6Zm4.7-.4c.7.4.8 1.6-.2 1.8l.2-1.8ZM202 70c.2 1.5 3.3 1.5 3.8-.4l-3.8.4Zm-13.9 0c1.6-1.5 2.7-.8 3 1.3l-3-1.3Zm35.4-10-1-.1 1 .1Zm22.1 1c1.3 2.4 2.6 0 3.4-.9l-3.4 1Zm31.6 7c0 1.7 1.7 2.7 2.5.8l-2.5-.7Z"/>
    <path fill="#827D6D" d="M268.3 71c-.5-1-1.3-2.6-2.3-2.8.1.5 0 1.1.2 1.6l-1.9.4c.8.3 1.5.4 2.3.2 0 .4.4 1 .4 1.3.6-.2 1-.6 1.5-1l-.3.3Z"/>
    <path fill="#CCE0BF" d="M196 64c0-1.1-1.2-2.9-2-3.7 0 1 .3 1.9 0 2.8-.6-.1-1.2-.4-1.7-.9 1.3 1 3 1.3 4 2.8l-.3-1Zm-5.8-9.3c-.5-2.8-5.5-4.7-6.5-8-1.2-3.7-1.6-8-2.3-11.9l5.4 9c2 3.6 3.3 7.7 5 11.4l-1.6-.5Zm-10.4-3.6c-3.8-1-6.6-3.9-10.7-4.4-2.9-.4-6.4-1.1-9 0 3.2.2 7.5 4.3 10.6 5.7 3 1.5 10.5 3 13.6 1.2l-4.4-2.5Zm102.9-5c-3.6-1.7-5.8-5-9.8-6.2-2.8-1-6-2.3-9-1.6 3.3.7 6.8 5.5 9.5 7.5s9.8 4.8 13.2 3.6l-4-3.3Z"/>
    <path fill="#BABAB4" d="m317.7 64.3.4.8c2.3-1.1 4.6-.3 6.8.6l2 1.1c1.2.7 2.4 1.4 3.6 1.6l.1-.9c-1-.2-2.1-.8-3.2-1.4l-2.1-1.2c-2.4-1-5-1.8-7.6-.6Z"/>
    <path fill="#7E6D63" d="M311 60.4c-.3.3-.1.5-.5.7 1.5.4 3.2 0 4.5.7-2.8-1.4-2.8 1.4-1 2.5-3.4-.3-2-.2-4.2 2-.2-1.2.5-3.6-.4-4.7l1.5-1.2Z"/>
    <path fill="#9C8E7D" d="M320.5 68.4c.8-.1 1.8-.2 2.6.3-.4.3-.6 1-1 1.3 1 .3 1.8.2 2.8.3-.5 1.3-2 .7-2.3 2.3 0-.4-.5-1.4-.6-1.8-.5 1.5-1.9 1.8-3.2 1.2.3-.3.4-.7.6-1-.5 0-1-.3-1.4-.3 2.6 1.3 3-1.7.4-1.6.5.3 1.2.3 1.8.4.4-.7.3-1.1 0-1.6l.3.5Z"/>
    <path fill="#D6CBBC" d="M328.9 67.5c1.6.6.3 3 2 3.3 0-.6.5-1.4.6-2.1 1 .3 1.5.8 2.6.9 0-1.8-1.4-2.2.8-3.8-1.5-.2-3 1.4-4.7 1.3l-1.3.5Z"/>
    <path fill="#817463" d="M316.3 62c1.2-.8 4.8-1.6 5.7-.1-.7.3-1.1 1-1.5 1.5 1 .3 1.7 1 1.9 2-1.2 0-2.3-.4-3.4-.7.3 1 0 1.7-1 1.8l-.3-2.4c-.6.2-1.5.2-2 .5l.6-2.5Z"/>
    <path fill="#BABAB4" d="M307 58.5a5 5 0 0 0 2.1 0h.9l2.6.2c1.5.1 3.3.3 5.2.1h2.3c1 0 2 0 3-.2.5 0 1.2-.3 2-.6.8-.4 1.8-.8 2.3-.6l.3-.9c-.9-.2-2 .2-3 .7-.6.2-1.3.5-1.7.5l-3 .2h-2.2c-2 .2-3.7 0-5.1 0a41.3 41.3 0 0 0-3.7-.2h-1.8l-.2.8Z"/>
    <path fill="#90887B" d="M319.1 58.7c1.6.4 2.3 1.7 4 1.7-.2-.8-1-1.2-1.9-1.7 0-1.3 1.4-1.8 2.2-2.6-1.7-.2-4.5 1-6 2 1 1.4 1 4.4 3.2 4.5-.6-.9-.4-2 .3-2.7l-1.8-1.2Z"/>
    <path fill="#DABD9A" d="M327.6 57.4c-.3 0-.4 0-.5.3.4.8.9 1.7 1.5 2.4-.6-1.5 0-2.5 1.2-3.3-.6 0-1-.3-1.6-.2.3-.5.4-1.2.8-1.6-1.6-.5-1.2 1.6-2.8 1.3l1.4 1.1Z"/>
    <path fill="#817463" d="M330.6 67a6 6 0 0 0 1 2.5c-.7-.7-1.5-1-2.4-1.2 0-.8.3-1.2 1-1.1l.4-.2Zm.8.2v.5l1.2.3c0-.5-.3-.7-.6-1l-.6.2Z"/>
    <path fill="#9E8A67" d="M326 57c1.2-.9 1.8 1.7 2.3 2.7-.8-1-1.5-1.1-2.8-1.6 0-.6.2-1.2.6-1.4l-.1.2Z"/>
    <path fill="#A59586" d="M308.9 58.4c1.3-.7 3.8-.6 5.1-.4-.8-.1-1.3-.7-1.8-1 .5-1 1-2 1.8-2.9-1 .4-2 .8-3.1 1 .3-1 .2-2-.6-2.6 0 1.3-.6 4.3-1.8 4.8l.4 1.1Z"/>
    <path fill="#6E6157" d="M321.5 70.9c-.2-2.7-2.4-1-3.4-.6l3.4.6Z"/>
    <path fill="#C3D5CF" d="M300.3 60a24 24 0 0 1 8.3 2.8c2.3 1.5 3.7 4.6 4.9 7 1.3 2.7 2.3 5.5 3.3 8.3.7 2.1 2 4.2 2.3 6.4A168.5 168.5 0 0 0 304 68c-2-1.8-6.4-5-7.2-7.5l3.6-.4Z"/>
    <path fill="url(#n)" d="M295.6 39.7h52.1v21.1h-52.1z"/>
    <path fill="url(#o)" d="M295.4 43h23v17h-23z"/>
    <path fill="#7D7F77" d="M298 56.3c0 .9-.3 1.7-.8 2.3 2.7 4 11-2.1 14.2-2-2.5 1.8-14.3 7.5-16 3l2.7-3.4Z"/>
    <path fill="#8E9788" d="M297.5 57c2.9 0 7.2-3.4 9.7-4.8 3-1.7 5.9-3.7 9.2-4.1 6.2-.9 12.3-4.2 18.6-2.1-6.4-.4-12.4.2-18.4 2.8-3 1.3-5 3-8.3 3.5-3.2.6-6 2.5-8.8 4l-2 .7Z"/>
    <path fill="#CCE0BF" d="M299 61.4c1.3 2.5 6.6 2.8 8.6 5.6 2.3 3.2 4 7.2 5.8 10.6-2.5-2.2-5.3-4.5-8-7-3-2.7-5.4-6.2-8.2-9.2h1.7Zm11 .2c3.9 0 7.4 1.8 11.5 1 2.9-.6 6.4-.9 8.6-2.9-3.2 1-8.5-1.7-11.9-2-3.3-.5-10.9.3-13.3 3l5 1Z"/>
    <path fill="#BABAB4" d="m228.4 39.3.3-.9c-2.4-.8-3.5-3-4.5-5.3-.3-.6-.5-1.4-.7-2.2a11 11 0 0 0-1.4-3.5l-.7.5c.6.9 1 2.1 1.3 3.3l.7 2.3c1 2.4 2.3 4.8 5 5.8Z"/>
    <path fill="#7E6D63" d="M230.5 46.8c.4-.1.4-.4.8-.2-.8-1.3-2.2-2.3-2.7-3.6 1 2.9 2.9.9 2.4-1.2 2.2 2.6 1.3 1.6 4.4 1.6-.7 1-2.9 2.2-3 3.6l-2-.2Z"/>
    <path fill="#9C8E7D" d="M229.3 34.4c-.7-.5-1.5-1.2-1.7-2 .5 0 1.1-.4 1.6-.4-.5-.9-1.1-1.3-1.7-2 1.2-.7 1.8.8 3.1-.1-.2.2-.5 1.3-.7 1.6 1.4-.6 2.6.1 3 1.4l-1 .3c.3.4.4 1 .7 1.3-.9-2.8-3.3-1-1.3.8-.2-.5-.7-1-1-1.5-.9.2-1 .6-1.2 1.1l.2-.5Z"/>
    <path fill="#D6CBBC" d="M222.7 29.1c-.8-1.5 1.7-2.3.9-3.8-.6.5-1.5.7-2 1.1-.5-.8-.6-1.6-1.2-2.4-1.4 1.3-.6 2.5-3.3 2.2 1 1.2 3.2 1 4.3 2.3l1.3.6Z"/>
    <path fill="#817463" d="M227.9 41.9c-1.5-.3-4.6-2.3-4.2-4 .7.3 1.5 0 2 0-.5-.9-.4-2 .2-2.8l1.9 2.9c.4-.9 1.2-1.2 2-.6l-1.6 2c.6.3 1.3.9 2 1l-2.3 1.4Z"/>
    <path fill="#BABAB4" d="M232 51c-.3-.8-1-1.2-1.5-1.7l-.6-.6-1.8-2c-1-1-2.1-2.4-3.6-3.7l-1.7-1.5-2.2-2-2-.9c-.8-.3-1.8-.7-2-1.2l-.8.4c.4.8 1.5 1.2 2.6 1.6.6.3 1.3.5 1.6.8l2.2 2 1.7 1.5c1.5 1.2 2.6 2.5 3.6 3.6a38.5 38.5 0 0 0 3.7 4l.8-.4Z"/>
    <path fill="#90887B" d="M223.4 42.3c-.8-1.4-.4-2.9-1.7-4.1-.3.8 0 1.6.2 2.6-.9 1-2.2.3-3.3.3 1.1 1.3 4 2.4 5.7 2.8.3-1.8 2.3-4 .8-5.5-.2 1-1 1.7-2 1.8l.3 2Z"/>
    <path fill="#DABD9A" d="M216.5 37.2c.1.3.3.3.6.2l.6-2.7c-.7 1.4-1.7 1.8-3.2 1.4.4.4.5 1 1 1.3-.6.1-1 .6-1.7.6.8 1.5 2-.3 2.9 1l-.2-1.8Z"/>
    <path fill="#817463" d="M221 28.3c.5-.8 1-1.5 1-2.5.1 1 .4 1.8 1 2.6-.5.5-1.1.6-1.6 0h-.4Zm-.4-.7c.2 0 .3-.1.4-.3-.1-.3-.4-.8-.7-1-.3.3-.3.6-.2 1l.5.3Z"/>
    <path fill="#9E8A67" d="M217.3 38.7c-1.5-.3 0-2.6.3-3.6-.2 1.3.3 1.9 1 3.1a2 2 0 0 1-1.5.7l.2-.2Z"/>
    <path fill="#A59586" d="M230.6 49.6c-1.5-.4-3.1-2.2-4-3.3.5.7.5 1.4.6 2-1 .4-2.2.7-3.3.8l3 1.4c-1 .6-1.7 1.4-1.5 2.3.9-1 3.4-2.6 4.7-2.1l.5-1Z"/>
    <path fill="#6E6157" d="M230.2 31.9c-1.6 2 1 2.4 2.1 2.8l-2-2.9Z"/>
    <path fill="#C3D5CF" d="M237.9 54.4a24.1 24.1 0 0 1-4-7.8c-.6-2.6.5-5.8 1.3-8.3 1-2.9 2.2-5.6 3.5-8.3 1-2 1.4-4.5 2.8-6.2a168.9 168.9 0 0 0-.7 22.4c.1 2.7 1.1 8.1 0 10.4l-3-2.2Z"/>
    <path fill="url(#p)" d="M189.8 35.4h51.1v25.9h-51.1z"/>
    <path fill="url(#q)" d="M213.3 52.4h28.1V61h-28.1z"/>
    <path fill="#7D7F77" d="M236.8 58.7c.6-.6 1.4-1 2.3-1 .8-4.8-9.4-6.3-11.6-8.5 3 .4 15.5 4.6 13.6 9l-4.3.5Z"/>
    <path fill="#8E9788" d="M237.7 58.6c-2-2-7.5-2.6-10.3-3.3-3.3-1-6.7-1.6-9.4-3.6-5-3.7-11.8-5.6-14.8-11.5 4.4 4.8 9.1 8.6 15.1 10.8 3.1 1.2 5.8 1.5 8.5 3.4 2.6 1.8 6 2.4 9 3.2l1.9 1Z"/>
    <path fill="#CCE0BF" d="M239.8 54.5c.8-2.9-2.8-6.7-2.3-10.1.6-3.9 2.2-8 3.3-11.7l.8 10.5c.2 4.1-.5 8.3-.6 12.4l-1.2-1.1Zm-7.7-7.9c-3-2.7-4.2-6.5-7.6-8.8-2.4-1.6-5.2-3.8-8.2-4 3 1.6 5 7.2 7 9.8 2 2.7 8.1 7.4 11.7 7.2l-2.9-4.2Z"/>
    <path fill="#BABAB4" d="m264.8 79.4-.3.8c2.3 1 3.4 3.3 4.2 5.5.3.7.4 1.5.6 2.3.3 1.2.6 2.5 1.2 3.6l.8-.5c-.6-.9-.9-2.1-1.2-3.3l-.6-2.4c-.9-2.4-2-4.9-4.7-6Z"/>
    <path fill="#7E6D63" d="M263 71.8c-.4.1-.4.4-.8.2.8 1.3 2.1 2.4 2.6 3.7-1-3-2.9-1-2.5 1-2-2.7-1.2-1.6-4.3-1.7.7-.9 3-2 3-3.4l2 .2Z"/>
    <path fill="#9C8E7D" d="M263.7 84.3c.6.5 1.4 1.2 1.6 2.1-.5 0-1.2.3-1.6.2.4 1 1 1.4 1.6 2.2-1.3.5-1.8-1-3.2 0l.8-1.7c-1.4.6-2.5-.2-3-1.5.4 0 .8-.3 1-.3-.1-.4-.3-.9-.6-1.3.8 2.8 3.3 1.1 1.4-.8.2.6.7 1.1 1 1.6.8-.1 1-.5 1.1-1l-.1.5Z"/>
    <path fill="#D6CBBC" d="M270 89.8c.8 1.6-1.8 2.3-1 3.8.6-.4 1.5-.6 2-1 .4.8.5 1.6 1.1 2.4 1.4-1.2.7-2.4 3.3-2-.8-1.2-3-1.2-4-2.5l-1.4-.7Z"/>
    <path fill="#817463" d="M265.4 76.9c1.5.3 4.5 2.4 4 4-.6-.2-1.5 0-2 0 .4 1 .3 2-.3 2.8-.7-1-1.2-2-1.7-3-.5.9-1.3 1.2-2 .5l1.6-1.8c-.6-.4-1.2-1-1.9-1.2a66 66 0 0 0 2.3-1.3Z"/>
    <path fill="#BABAB4" d="M261.7 67.6c.3.7 1 1.2 1.4 1.7l.7.6 1.6 2c1 1.2 2 2.6 3.5 4l1.6 1.5 2 2.1c.5.4 1.2.7 2 1 .8.4 1.8.8 2 1.4l.8-.4c-.4-.8-1.5-1.3-2.5-1.8-.6-.2-1.3-.5-1.6-.8a39.8 39.8 0 0 1-3.7-3.7 31.1 31.1 0 0 1-3.4-3.8c-.5-.7-1-1.4-1.7-2l-.7-.8c-.4-.4-1-.8-1.1-1.3l-.8.3Z"/>
    <path fill="#90887B" d="M269.9 76.7c.7 1.4.2 2.8 1.5 4.1.4-.8.1-1.6-.1-2.6 1-.9 2.2-.2 3.4-.2-1-1.3-4-2.5-5.6-3-.3 1.7-2.5 3.9-1.1 5.4.3-1 1.2-1.6 2.2-1.6l-.3-2.1Z"/>
    <path fill="#DABD9A" d="M276.6 82c-.2-.2-.3-.3-.6-.2-.3.9-.6 1.9-.7 2.7.7-1.4 1.8-1.7 3.2-1.3-.4-.4-.5-1-1-1.3l1.8-.6c-.7-1.5-2 .3-2.8-1V82Z"/>
    <path fill="#817463" d="M271.6 90.7c-.5.8-1 1.5-1.1 2.4 0-.9-.3-1.7-.8-2.5.5-.6 1.1-.6 1.6 0l.3.1Zm.4.7-.4.3c.1.4.4.9.7 1.1.3-.3.3-.6.2-1l-.5-.4Z"/>
    <path fill="#9E8A67" d="M275.9 80.5c1.4.4-.1 2.6-.5 3.6.2-1.3-.3-2-.8-3.1.4-.5 1-.7 1.5-.6l-.3.1Z"/>
    <path fill="#A59586" d="M263 69c1.5.5 3.1 2.4 3.9 3.5-.4-.7-.4-1.4-.5-2 1-.4 2.2-.7 3.3-.7-1-.4-2-1-2.9-1.6 1-.4 1.7-1.3 1.6-2.2-1 1-3.5 2.5-4.8 2l-.5 1Z"/>
    <path fill="#6E6157" d="M262.6 86.8c1.8-2-.9-2.5-2-3l2 3Z"/>
    <path fill="#C3D5CF" d="M256 63.9c1.3 1.8 3.4 5.6 3.7 8 .4 2.6-.8 5.7-1.8 8.2a71 71 0 0 1-3.9 8.1c-1 2-1.6 4.4-3 6a169 169 0 0 0 1.4-14.6c.2-2.5.2-5 .3-7.7 0-2.7-.7-8.2.5-10.4L256 64Z"/>
    <path fill="url(#r)" d="M253.4 57.4h49.9V85h-49.9z"/>
    <path fill="url(#s)" d="M252.7 57.4h28.1v9.4h-28.1z"/>
    <path fill="#7D7F77" d="M257.3 59.6c-.7.6-1.5 1-2.4 1-1 4.7 9.2 6.6 11.2 9-3-.6-15.2-5.3-13.1-9.7l4.3-.3Z"/>
    <path fill="#8E9788" d="M256.4 59.7c1.9 2.1 7.4 3 10 3.8 3.4 1 6.8 1.8 9.4 4 4.8 4 11.4 6.1 14.2 12.2-4.1-5-8.7-9-14.6-11.6-3-1.3-5.7-1.7-8.3-3.7-2.5-2-5.8-2.6-9-3.7l-1.7-1Z"/>
    <path fill="#CCE0BF" d="M254.1 63.7c-.9 2.8 2.5 6.8 1.8 10.2-.7 3.8-2.5 7.8-3.8 11.5l-.3-10.5c0-4.1.8-8.3 1.1-12.4l1.2 1.3Zm7.3 8.3c2.8 2.8 3.9 6.6 7.2 9 2.4 1.8 5 4.2 8 4.4-2.8-1.7-4.6-7.4-6.5-10-2-2.8-7.8-7.8-11.4-7.7l2.7 4.3Z"/>
  </g>
  <defs>
    <pattern id="b" width="1" height="1" patternContentUnits="objectBoundingBox">
      <use xlink:href="#t" transform="scale(0)"/>
    </pattern>
    <pattern id="c" width="1" height="1" patternContentUnits="objectBoundingBox">
      <use xlink:href="#u" transform="scale(0)"/>
    </pattern>
    <pattern id="d" width="1" height="1" patternContentUnits="objectBoundingBox">
      <use xlink:href="#v" transform="scale(0)"/>
    </pattern>
    <pattern id="e" width="1" height="1" patternContentUnits="objectBoundingBox">
      <use xlink:href="#w" transform="scale(0)"/>
    </pattern>
    <pattern id="f" width="1" height="1" patternContentUnits="objectBoundingBox">
      <use xlink:href="#x" transform="scale(0)"/>
    </pattern>
    <pattern id="g" width="1" height="1" patternContentUnits="objectBoundingBox">
      <use xlink:href="#y" transform="scale(0)"/>
    </pattern>
    <pattern id="h" width="1" height="1" patternContentUnits="objectBoundingBox">
      <use xlink:href="#z" transform="scale(0)"/>
    </pattern>
    <pattern id="i" width="1" height="1" patternContentUnits="objectBoundingBox">
      <use xlink:href="#A" transform="scale(0)"/>
    </pattern>
    <pattern id="j" width="1" height="1" patternContentUnits="objectBoundingBox">
      <use xlink:href="#B" transform="scale(0)"/>
    </pattern>
    <pattern id="k" width="1" height="1" patternContentUnits="objectBoundingBox">
      <use xlink:href="#C" transform="scale(0)"/>
    </pattern>
    <pattern id="l" width="1" height="1" patternContentUnits="objectBoundingBox">
      <use xlink:href="#D" transform="scale(0)"/>
    </pattern>
    <pattern id="m" width="1" height="1" patternContentUnits="objectBoundingBox">
      <use xlink:href="#E" transform="scale(0)"/>
    </pattern>
    <pattern id="n" width="1" height="1" patternContentUnits="objectBoundingBox">
      <use xlink:href="#F" transform="scale(0)"/>
    </pattern>
    <pattern id="o" width="1" height="1" patternContentUnits="objectBoundingBox">
      <use xlink:href="#G" transform="scale(0)"/>
    </pattern>
    <pattern id="p" width="1" height="1" patternContentUnits="objectBoundingBox">
      <use xlink:href="#H" transform="scale(0)"/>
    </pattern>
    <pattern id="q" width="1" height="1" patternContentUnits="objectBoundingBox">
      <use xlink:href="#I" transform="scale(0)"/>
    </pattern>
    <pattern id="r" width="1" height="1" patternContentUnits="objectBoundingBox">
      <use xlink:href="#J" transform="scale(0)"/>
    </pattern>
    <pattern id="s" width="1" height="1" patternContentUnits="objectBoundingBox">
      <use xlink:href="#K" transform="scale(0)"/>
    </pattern>
    <clipPath id="a">
      <path fill="#fff" d="M.5.5h347v102.1H.5z"/>
    </clipPath>
  </defs>
</svg>
